G04 #@! TF.GenerationSoftware,KiCad,Pcbnew,5.1.3-ffb9f22~84~ubuntu18.04.1*
G04 #@! TF.CreationDate,2019-07-30T21:27:14-07:00*
G04 #@! TF.ProjectId,Blinkers,426c696e-6b65-4727-932e-6b696361645f,rev?*
G04 #@! TF.SameCoordinates,Original*
G04 #@! TF.FileFunction,Paste,Top*
G04 #@! TF.FilePolarity,Positive*
%FSLAX46Y46*%
G04 Gerber Fmt 4.6, Leading zero omitted, Abs format (unit mm)*
G04 Created by KiCad (PCBNEW 5.1.3-ffb9f22~84~ubuntu18.04.1) date 2019-07-30 21:27:14*
%MOMM*%
%LPD*%
G04 APERTURE LIST*
%ADD10R,1.700000X0.900000*%
%ADD11R,0.900000X1.700000*%
%ADD12R,0.900000X2.540000*%
%ADD13R,2.300000X2.100000*%
%ADD14R,1.400000X2.100000*%
%ADD15R,2.100000X2.300000*%
%ADD16R,2.100000X1.400000*%
G04 APERTURE END LIST*
D10*
X241300000Y-106138000D03*
X241300000Y-109038000D03*
X241300000Y-88812500D03*
X241300000Y-91712500D03*
X228600000Y-106138000D03*
X228600000Y-109038000D03*
X228600000Y-88812500D03*
X228600000Y-91712500D03*
X215900000Y-106138000D03*
X215900000Y-109038000D03*
X215900000Y-88812500D03*
X215900000Y-91712500D03*
X201930000Y-106138000D03*
X201930000Y-109038000D03*
X203200000Y-88812500D03*
X203200000Y-91712500D03*
X189230000Y-106138000D03*
X189230000Y-109038000D03*
X189230000Y-88812500D03*
X189230000Y-91712500D03*
X176710000Y-106138000D03*
X176710000Y-109038000D03*
X176530000Y-88812500D03*
X176530000Y-91712500D03*
X163830000Y-106138000D03*
X163830000Y-109038000D03*
X163830000Y-91712500D03*
X163830000Y-88812500D03*
X151130000Y-106138000D03*
X151130000Y-109038000D03*
X151130000Y-88812500D03*
X151130000Y-91712500D03*
X138430000Y-106138000D03*
X138430000Y-109038000D03*
X138430000Y-88812500D03*
X138430000Y-91712500D03*
D11*
X251280000Y-107950000D03*
X254180000Y-107950000D03*
X251280000Y-90170000D03*
X254180000Y-90170000D03*
D10*
X125730000Y-106138000D03*
X125730000Y-109038000D03*
X125730000Y-88812500D03*
X125730000Y-91712500D03*
X113030000Y-106138000D03*
X113030000Y-109038000D03*
X113030000Y-88812500D03*
X113030000Y-91712500D03*
X100330000Y-106138000D03*
X100330000Y-109038000D03*
X100330000Y-88812500D03*
X100330000Y-91712500D03*
X87630000Y-106138000D03*
X87630000Y-109038000D03*
X87630000Y-88812500D03*
X87630000Y-91712500D03*
X74930000Y-106138000D03*
X74930000Y-109038000D03*
X74930000Y-88812500D03*
X74930000Y-91712500D03*
X62230000Y-106138000D03*
X62230000Y-109038000D03*
X62230000Y-88812500D03*
X62230000Y-91712500D03*
X49530000Y-106138000D03*
X49530000Y-109038000D03*
X49530000Y-88812500D03*
X49530000Y-91712500D03*
X36830000Y-106138000D03*
X36830000Y-109038000D03*
X36830000Y-88812500D03*
X36830000Y-91712500D03*
X24130000Y-106138000D03*
X24130000Y-109038000D03*
X24130000Y-88812500D03*
X24130000Y-91712500D03*
D12*
X22680000Y-96037500D03*
X25580000Y-96037500D03*
X22680000Y-113362000D03*
X25580000Y-113362000D03*
X19230000Y-85090000D03*
X16330000Y-85090000D03*
X19230000Y-126470000D03*
X16330000Y-126470000D03*
X64950000Y-85090000D03*
X62050000Y-85090000D03*
X64950000Y-126470000D03*
X62050000Y-126470000D03*
X103230000Y-85090000D03*
X100330000Y-85090000D03*
X103230000Y-126470000D03*
X100330000Y-126470000D03*
X141330000Y-85090000D03*
X138430000Y-85090000D03*
X141330000Y-126470000D03*
X138430000Y-126470000D03*
X179430000Y-85090000D03*
X176530000Y-85090000D03*
X179430000Y-126470000D03*
X176530000Y-126470000D03*
X217530000Y-85090000D03*
X214630000Y-85090000D03*
X217530000Y-126470000D03*
X214630000Y-126470000D03*
D13*
X196378000Y-85090000D03*
D14*
X199028000Y-85090000D03*
D15*
X17780000Y-90262500D03*
D16*
X17780000Y-92912500D03*
D15*
X17780000Y-99887500D03*
D16*
X17780000Y-102537500D03*
D15*
X17780000Y-109512000D03*
D16*
X17780000Y-112162000D03*
D15*
X17780000Y-119138000D03*
D16*
X17780000Y-121788000D03*
D13*
X30537000Y-85090000D03*
D14*
X33187000Y-85090000D03*
D13*
X30537000Y-126470000D03*
D14*
X33187000Y-126470000D03*
D13*
X43294000Y-85090000D03*
D14*
X45944000Y-85090000D03*
D13*
X43294000Y-126470000D03*
D14*
X45944000Y-126470000D03*
D13*
X56051000Y-85090000D03*
D14*
X58701000Y-85090000D03*
D13*
X56051000Y-126470000D03*
D14*
X58701000Y-126470000D03*
D13*
X68808000Y-85090000D03*
D14*
X71458000Y-85090000D03*
D13*
X68808000Y-126470000D03*
D14*
X71458000Y-126470000D03*
D13*
X81565000Y-85090000D03*
D14*
X84215000Y-85090000D03*
D13*
X81565000Y-126470000D03*
D14*
X84215000Y-126470000D03*
D13*
X94322000Y-85090000D03*
D14*
X96972000Y-85090000D03*
D13*
X94322000Y-126470000D03*
D14*
X96972000Y-126470000D03*
D13*
X107079000Y-85090000D03*
D14*
X109729000Y-85090000D03*
D13*
X107079000Y-126470000D03*
D14*
X109729000Y-126470000D03*
D13*
X119836000Y-85090000D03*
D14*
X122486000Y-85090000D03*
D13*
X119836000Y-126470000D03*
D14*
X122486000Y-126470000D03*
D13*
X132593000Y-85090000D03*
D14*
X135243000Y-85090000D03*
D13*
X132593000Y-126470000D03*
D14*
X135243000Y-126470000D03*
D15*
X260160000Y-90262500D03*
D16*
X260160000Y-92912500D03*
D15*
X260160000Y-99887500D03*
D16*
X260160000Y-102537500D03*
D15*
X260160000Y-109512000D03*
D16*
X260160000Y-112162000D03*
D13*
X145350000Y-85090000D03*
D14*
X148000000Y-85090000D03*
D13*
X145350000Y-126470000D03*
D14*
X148000000Y-126470000D03*
D13*
X158107000Y-85090000D03*
D14*
X160757000Y-85090000D03*
D13*
X158107000Y-126470000D03*
D14*
X160757000Y-126470000D03*
D13*
X170864000Y-85090000D03*
D14*
X173514000Y-85090000D03*
D13*
X170864000Y-126470000D03*
D14*
X173514000Y-126470000D03*
D13*
X183621000Y-85090000D03*
D14*
X186271000Y-85090000D03*
D13*
X183621000Y-126470000D03*
D14*
X186271000Y-126470000D03*
D13*
X196378000Y-126470000D03*
D14*
X199028000Y-126470000D03*
D13*
X209135000Y-85090000D03*
D14*
X211785000Y-85090000D03*
D13*
X209135000Y-126470000D03*
D14*
X211785000Y-126470000D03*
D13*
X221892000Y-85090000D03*
D14*
X224542000Y-85090000D03*
D13*
X221892000Y-126470000D03*
D14*
X224542000Y-126470000D03*
D13*
X234649000Y-85090000D03*
D14*
X237299000Y-85090000D03*
D13*
X234649000Y-126470000D03*
D14*
X237299000Y-126470000D03*
D13*
X247406000Y-85090000D03*
D14*
X250056000Y-85090000D03*
D13*
X247406000Y-126470000D03*
D14*
X250056000Y-126470000D03*
D15*
X260160000Y-119138000D03*
D16*
X260160000Y-121788000D03*
D15*
X247406000Y-119138000D03*
D16*
X247406000Y-121788000D03*
X234649000Y-121788000D03*
D15*
X234649000Y-119138000D03*
D16*
X221892000Y-121788000D03*
D15*
X221892000Y-119138000D03*
D16*
X209135000Y-121788000D03*
D15*
X209135000Y-119138000D03*
D16*
X196378000Y-121788000D03*
D15*
X196378000Y-119138000D03*
D16*
X183621000Y-121788000D03*
D15*
X183621000Y-119138000D03*
D16*
X170864000Y-121788000D03*
D15*
X170864000Y-119138000D03*
D16*
X158107000Y-121788000D03*
D15*
X158107000Y-119138000D03*
D16*
X145350000Y-121788000D03*
D15*
X145350000Y-119138000D03*
D16*
X132593000Y-121788000D03*
D15*
X132593000Y-119138000D03*
D16*
X119836000Y-121788000D03*
D15*
X119836000Y-119138000D03*
D16*
X107079000Y-121788000D03*
D15*
X107079000Y-119138000D03*
D16*
X94322000Y-121788000D03*
D15*
X94322000Y-119138000D03*
D16*
X81565000Y-121788000D03*
D15*
X81565000Y-119138000D03*
D16*
X68808000Y-121788000D03*
D15*
X68808000Y-119138000D03*
D16*
X56051000Y-121788000D03*
D15*
X56051000Y-119138000D03*
D16*
X43294000Y-121788000D03*
D15*
X43294000Y-119138000D03*
X30537000Y-119138000D03*
D16*
X30537000Y-121788000D03*
D15*
X247406000Y-113362000D03*
D16*
X247406000Y-116012000D03*
X234649000Y-116012000D03*
D15*
X234649000Y-113362000D03*
D16*
X221892000Y-116012000D03*
D15*
X221892000Y-113362000D03*
D16*
X209135000Y-116012000D03*
D15*
X209135000Y-113362000D03*
D16*
X196378000Y-116012000D03*
D15*
X196378000Y-113362000D03*
D16*
X183621000Y-116012000D03*
D15*
X183621000Y-113362000D03*
D16*
X170864000Y-116012000D03*
D15*
X170864000Y-113362000D03*
D16*
X158107000Y-116012000D03*
D15*
X158107000Y-113362000D03*
D16*
X145350000Y-116012000D03*
D15*
X145350000Y-113362000D03*
D16*
X132593000Y-116012000D03*
D15*
X132593000Y-113362000D03*
D16*
X119836000Y-116012000D03*
D15*
X119836000Y-113362000D03*
D16*
X107079000Y-116012000D03*
D15*
X107079000Y-113362000D03*
D16*
X94322000Y-116012000D03*
D15*
X94322000Y-113362000D03*
D16*
X81565000Y-116012000D03*
D15*
X81565000Y-113362000D03*
D16*
X68808000Y-116012000D03*
D15*
X68808000Y-113362000D03*
D16*
X56051000Y-116012000D03*
D15*
X56051000Y-113362000D03*
D16*
X43294000Y-116012000D03*
D15*
X43294000Y-113362000D03*
X30537000Y-113362000D03*
D16*
X30537000Y-116012000D03*
D15*
X247406000Y-107588000D03*
D16*
X247406000Y-110238000D03*
X234649000Y-110238000D03*
D15*
X234649000Y-107588000D03*
D16*
X221892000Y-110238000D03*
D15*
X221892000Y-107588000D03*
D16*
X209135000Y-110238000D03*
D15*
X209135000Y-107588000D03*
D16*
X196378000Y-110238000D03*
D15*
X196378000Y-107588000D03*
D16*
X183621000Y-110238000D03*
D15*
X183621000Y-107588000D03*
D16*
X170864000Y-110238000D03*
D15*
X170864000Y-107588000D03*
D16*
X158107000Y-110238000D03*
D15*
X158107000Y-107588000D03*
D16*
X145350000Y-110238000D03*
D15*
X145350000Y-107588000D03*
D16*
X132593000Y-110238000D03*
D15*
X132593000Y-107588000D03*
D16*
X119836000Y-110238000D03*
D15*
X119836000Y-107588000D03*
D16*
X107079000Y-110238000D03*
D15*
X107079000Y-107588000D03*
D16*
X94322000Y-110238000D03*
D15*
X94322000Y-107588000D03*
D16*
X81565000Y-110238000D03*
D15*
X81565000Y-107588000D03*
D16*
X68808000Y-110238000D03*
D15*
X68808000Y-107588000D03*
D16*
X56051000Y-110238000D03*
D15*
X56051000Y-107588000D03*
D16*
X43294000Y-110238000D03*
D15*
X43294000Y-107588000D03*
D16*
X30537000Y-110238000D03*
D15*
X30537000Y-107588000D03*
D16*
X247406000Y-104462000D03*
D15*
X247406000Y-101812000D03*
D16*
X234649000Y-104462000D03*
D15*
X234649000Y-101812000D03*
D16*
X221892000Y-104462000D03*
D15*
X221892000Y-101812000D03*
D16*
X209135000Y-104462000D03*
D15*
X209135000Y-101812000D03*
D16*
X196378000Y-104462000D03*
D15*
X196378000Y-101812000D03*
D16*
X183621000Y-104462000D03*
D15*
X183621000Y-101812000D03*
D16*
X170864000Y-104462000D03*
D15*
X170864000Y-101812000D03*
D16*
X158107000Y-104462000D03*
D15*
X158107000Y-101812000D03*
D16*
X145350000Y-104462000D03*
D15*
X145350000Y-101812000D03*
D16*
X132593000Y-104462000D03*
D15*
X132593000Y-101812000D03*
D16*
X119836000Y-104462000D03*
D15*
X119836000Y-101812000D03*
D16*
X107079000Y-104462000D03*
D15*
X107079000Y-101812000D03*
D16*
X94322000Y-104462000D03*
D15*
X94322000Y-101812000D03*
D16*
X81565000Y-104462000D03*
D15*
X81565000Y-101812000D03*
D16*
X68808000Y-104462000D03*
D15*
X68808000Y-101812000D03*
D16*
X56051000Y-104462000D03*
D15*
X56051000Y-101812000D03*
D16*
X43294000Y-104462000D03*
D15*
X43294000Y-101812000D03*
D16*
X30537000Y-104462000D03*
D15*
X30537000Y-101812000D03*
D16*
X247406000Y-98687500D03*
D15*
X247406000Y-96037500D03*
D16*
X234649000Y-98687500D03*
D15*
X234649000Y-96037500D03*
D16*
X221892000Y-98687500D03*
D15*
X221892000Y-96037500D03*
D16*
X209135000Y-98687500D03*
D15*
X209135000Y-96037500D03*
D16*
X196378000Y-98687500D03*
D15*
X196378000Y-96037500D03*
D16*
X183621000Y-98687500D03*
D15*
X183621000Y-96037500D03*
D16*
X170864000Y-98687500D03*
D15*
X170864000Y-96037500D03*
D16*
X158107000Y-98687500D03*
D15*
X158107000Y-96037500D03*
D16*
X145350000Y-98687500D03*
D15*
X145350000Y-96037500D03*
D16*
X132593000Y-98687500D03*
D15*
X132593000Y-96037500D03*
D16*
X119836000Y-98687500D03*
D15*
X119836000Y-96037500D03*
D16*
X107079000Y-98687500D03*
D15*
X107079000Y-96037500D03*
D16*
X94322000Y-98687500D03*
D15*
X94322000Y-96037500D03*
D16*
X81565000Y-98687500D03*
D15*
X81565000Y-96037500D03*
D16*
X68808000Y-98687500D03*
D15*
X68808000Y-96037500D03*
D16*
X56051000Y-98687500D03*
D15*
X56051000Y-96037500D03*
D16*
X43294000Y-98687500D03*
D15*
X43294000Y-96037500D03*
D16*
X30537000Y-98687500D03*
D15*
X30537000Y-96037500D03*
D16*
X247406000Y-92912500D03*
D15*
X247406000Y-90262500D03*
D16*
X234649000Y-92912500D03*
D15*
X234649000Y-90262500D03*
D16*
X221892000Y-92912500D03*
D15*
X221892000Y-90262500D03*
D16*
X209135000Y-92912500D03*
D15*
X209135000Y-90262500D03*
D16*
X196378000Y-92912500D03*
D15*
X196378000Y-90262500D03*
D16*
X183621000Y-92912500D03*
D15*
X183621000Y-90262500D03*
D16*
X170864000Y-92912500D03*
D15*
X170864000Y-90262500D03*
D16*
X158107000Y-92912500D03*
D15*
X158107000Y-90262500D03*
D16*
X145350000Y-92912500D03*
D15*
X145350000Y-90262500D03*
D16*
X132593000Y-92912500D03*
D15*
X132593000Y-90262500D03*
D16*
X119836000Y-92912500D03*
D15*
X119836000Y-90262500D03*
D16*
X107079000Y-92912500D03*
D15*
X107079000Y-90262500D03*
D16*
X94322000Y-92912500D03*
D15*
X94322000Y-90262500D03*
D16*
X81565000Y-92912500D03*
D15*
X81565000Y-90262500D03*
D16*
X68808000Y-92912500D03*
D15*
X68808000Y-90262500D03*
D16*
X56051000Y-92912500D03*
D15*
X56051000Y-90262500D03*
D16*
X43294000Y-92912500D03*
D15*
X43294000Y-90262500D03*
X30537000Y-90262500D03*
D16*
X30537000Y-92912500D03*
M02*
