G04 #@! TF.GenerationSoftware,KiCad,Pcbnew,5.1.3-ffb9f22~84~ubuntu18.04.1*
G04 #@! TF.CreationDate,2019-07-30T21:27:14-07:00*
G04 #@! TF.ProjectId,Blinkers,426c696e-6b65-4727-932e-6b696361645f,rev?*
G04 #@! TF.SameCoordinates,Original*
G04 #@! TF.FileFunction,Copper,L2,Bot*
G04 #@! TF.FilePolarity,Positive*
%FSLAX46Y46*%
G04 Gerber Fmt 4.6, Leading zero omitted, Abs format (unit mm)*
G04 Created by KiCad (PCBNEW 5.1.3-ffb9f22~84~ubuntu18.04.1) date 2019-07-30 21:27:14*
%MOMM*%
%LPD*%
G04 APERTURE LIST*
%ADD10R,1.700000X1.700000*%
%ADD11O,1.700000X1.700000*%
%ADD12C,0.600000*%
%ADD13C,0.250000*%
G04 APERTURE END LIST*
D10*
X241300000Y-95250000D03*
X228600000Y-116070000D03*
X228600000Y-112260000D03*
X228600000Y-99060000D03*
X228600000Y-95250000D03*
X62230000Y-113362000D03*
D11*
X62230000Y-115648000D03*
X62230000Y-117934000D03*
D10*
X229200000Y-85090000D03*
X229200000Y-126470000D03*
X228600000Y-119880000D03*
D11*
X100330000Y-117934000D03*
X100330000Y-115648000D03*
D10*
X100330000Y-113362000D03*
D11*
X138430000Y-117934000D03*
X138430000Y-115648000D03*
D10*
X138430000Y-113362000D03*
X228600000Y-102870000D03*
D11*
X176710000Y-117934000D03*
X176710000Y-115648000D03*
D10*
X176710000Y-113362000D03*
D11*
X215900000Y-117934000D03*
X215900000Y-115648000D03*
D10*
X215900000Y-113362000D03*
D11*
X252730000Y-117934000D03*
X252730000Y-115648000D03*
D10*
X252730000Y-113362000D03*
D12*
X22281600Y-105779300D03*
X57059700Y-87042400D03*
X230378900Y-88928400D03*
D13*
X57059700Y-105779300D02*
X57059700Y-87042400D01*
X57059700Y-105779300D02*
X22281600Y-105779300D01*
X62230000Y-112186700D02*
X57059700Y-107016400D01*
X57059700Y-107016400D02*
X57059700Y-105779300D01*
X62230000Y-113362000D02*
X62230000Y-112186700D01*
X229200000Y-85090000D02*
X229200000Y-86265300D01*
X229200000Y-86265300D02*
X230378900Y-87444200D01*
X230378900Y-87444200D02*
X230378900Y-88928400D01*
X62230000Y-115648000D02*
X63405300Y-115648000D01*
X63405300Y-115648000D02*
X83803300Y-95250000D01*
X83803300Y-95250000D02*
X228600000Y-95250000D01*
X101505300Y-115648000D02*
X118093300Y-99060000D01*
X118093300Y-99060000D02*
X228600000Y-99060000D01*
X100330000Y-115648000D02*
X101505300Y-115648000D01*
X252730000Y-115648000D02*
X251554700Y-115648000D01*
X251554700Y-115648000D02*
X247322700Y-119880000D01*
X247322700Y-119880000D02*
X228600000Y-119880000D01*
X139605300Y-115648000D02*
X152383300Y-102870000D01*
X152383300Y-102870000D02*
X228600000Y-102870000D01*
X138430000Y-115648000D02*
X139605300Y-115648000D01*
X228600000Y-112260000D02*
X227424700Y-112260000D01*
X176710000Y-115648000D02*
X177885300Y-115648000D01*
X177885300Y-115648000D02*
X181346700Y-112186600D01*
X181346700Y-112186600D02*
X227351300Y-112186600D01*
X227351300Y-112186600D02*
X227424700Y-112260000D01*
X228600000Y-116070000D02*
X227424700Y-116070000D01*
X215900000Y-115648000D02*
X227002700Y-115648000D01*
X227002700Y-115648000D02*
X227424700Y-116070000D01*
M02*
