M48
; DRILL file {KiCad (5.1.2)-2} date 8/5/2019 9:07:00 AM
; FORMAT={-:-/ absolute / inch / decimal}
; #@! TF.CreationDate,2019-08-05T09:07:00-07:00
; #@! TF.GenerationSoftware,Kicad,Pcbnew,(5.1.2)-2
FMAT,2
INCH
T1C0.0157
T2C0.0394
%
G90
G05
T1
X3.7753Y-4.095
T2
X9.0Y-4.05
X5.45Y-4.4631
X5.45Y-4.5531
X5.45Y-4.6431
X8.5Y-3.7382
X8.5Y-4.05
X3.95Y-4.4631
X3.95Y-4.5531
X3.95Y-4.6431
X9.0Y-4.7197
X9.0Y-3.75
X9.5Y-3.75
X9.0Y-3.9
X9.0Y-4.4197
X6.9571Y-4.4631
X6.9571Y-4.5531
X6.9571Y-4.6431
X9.95Y-4.4631
X9.95Y-4.5531
X9.95Y-4.6431
X9.0Y-4.5697
X2.45Y-4.4631
X2.45Y-4.5531
X2.45Y-4.6431
X8.5Y-4.4631
X8.5Y-4.5531
X8.5Y-4.6431
T0
M30
