M48
;DRILL file {KiCad 4.0.7-e2-6376~58~ubuntu16.04.1} date Thu May 17 13:03:54 2018
;FORMAT={-:-/ absolute / inch / decimal}
FMAT,2
INCH,TZ
T1C0.039
%
G90
G05
M72
T1
X3.05Y-4.6
X3.05Y-4.69
X3.05Y-4.78
X3.2Y-4.7
X4.5Y-4.6
X4.5Y-4.69
X4.5Y-4.78
X4.65Y-4.7
X5.95Y-4.6
X5.95Y-4.69
X5.95Y-4.78
X6.1Y-4.7
X7.4Y-4.6
X7.4Y-4.69
X7.4Y-4.78
X7.55Y-4.7
X8.85Y-4.6
X8.85Y-4.69
X8.85Y-4.78
X9.Y-4.7
X10.3Y-4.6
X10.3Y-4.69
X10.3Y-4.78
X10.4Y-5.1
X10.45Y-4.7
X10.65Y-5.1
T0
M30
