G04 #@! TF.FileFunction,Copper,L2,Bot,Signal*
%FSLAX46Y46*%
G04 Gerber Fmt 4.6, Leading zero omitted, Abs format (unit mm)*
G04 Created by KiCad (PCBNEW 4.0.7-e2-6376~58~ubuntu16.04.1) date Thu May 17 13:03:46 2018*
%MOMM*%
%LPD*%
G01*
G04 APERTURE LIST*
%ADD10C,0.100000*%
%ADD11R,1.700000X1.700000*%
%ADD12O,1.700000X1.700000*%
%ADD13C,0.250000*%
G04 APERTURE END LIST*
D10*
D11*
X264160000Y-129540000D03*
X77470000Y-116840000D03*
D12*
X77470000Y-119126000D03*
X77470000Y-121412000D03*
D11*
X81280000Y-119380000D03*
X270510000Y-129540000D03*
X118110000Y-119380000D03*
X265430000Y-119380000D03*
X114300000Y-116840000D03*
D12*
X114300000Y-119126000D03*
X114300000Y-121412000D03*
D11*
X151130000Y-116840000D03*
D12*
X151130000Y-119126000D03*
X151130000Y-121412000D03*
D11*
X154940000Y-119380000D03*
X191770000Y-119380000D03*
X228600000Y-119380000D03*
X187960000Y-116840000D03*
D12*
X187960000Y-119126000D03*
X187960000Y-121412000D03*
D11*
X224790000Y-116840000D03*
D12*
X224790000Y-119126000D03*
X224790000Y-121412000D03*
D11*
X261620000Y-116840000D03*
D12*
X261620000Y-119126000D03*
X261620000Y-121412000D03*
D13*
X261620000Y-116840000D02*
X224790000Y-116840000D01*
X224790000Y-116840000D02*
X187960000Y-116840000D01*
X187960000Y-116840000D02*
X151130000Y-116840000D01*
X151130000Y-116840000D02*
X114300000Y-116840000D01*
X116680700Y-119126000D02*
X116934700Y-119380000D01*
X114300000Y-119126000D02*
X116680700Y-119126000D01*
X118110000Y-119380000D02*
X116934700Y-119380000D01*
X264000700Y-119126000D02*
X264254700Y-119380000D01*
X261620000Y-119126000D02*
X264000700Y-119126000D01*
X265430000Y-119380000D02*
X264254700Y-119380000D01*
X190340700Y-119126000D02*
X190594700Y-119380000D01*
X187960000Y-119126000D02*
X190340700Y-119126000D01*
X191770000Y-119380000D02*
X190594700Y-119380000D01*
M02*
