G04 #@! TF.GenerationSoftware,KiCad,Pcbnew,(5.1.2)-2*
G04 #@! TF.CreationDate,2019-08-05T09:06:04-07:00*
G04 #@! TF.ProjectId,Blinkers,426c696e-6b65-4727-932e-6b696361645f,rev?*
G04 #@! TF.SameCoordinates,Original*
G04 #@! TF.FileFunction,Soldermask,Top*
G04 #@! TF.FilePolarity,Negative*
%FSLAX46Y46*%
G04 Gerber Fmt 4.6, Leading zero omitted, Abs format (unit mm)*
G04 Created by KiCad (PCBNEW (5.1.2)-2) date 2019-08-05 09:06:04*
%MOMM*%
%LPD*%
G04 APERTURE LIST*
%ADD10C,0.100000*%
G04 APERTURE END LIST*
D10*
G36*
X19880000Y-127940000D02*
G01*
X18580000Y-127940000D01*
X18580000Y-125000000D01*
X19880000Y-125000000D01*
X19880000Y-127940000D01*
X19880000Y-127940000D01*
G37*
G36*
X213580000Y-127940000D02*
G01*
X212280000Y-127940000D01*
X212280000Y-125000000D01*
X213580000Y-125000000D01*
X213580000Y-127940000D01*
X213580000Y-127940000D01*
G37*
G36*
X216480000Y-127940000D02*
G01*
X215180000Y-127940000D01*
X215180000Y-125000000D01*
X216480000Y-125000000D01*
X216480000Y-127940000D01*
X216480000Y-127940000D01*
G37*
G36*
X175730000Y-127940000D02*
G01*
X174430000Y-127940000D01*
X174430000Y-125000000D01*
X175730000Y-125000000D01*
X175730000Y-127940000D01*
X175730000Y-127940000D01*
G37*
G36*
X178630000Y-127940000D02*
G01*
X177330000Y-127940000D01*
X177330000Y-125000000D01*
X178630000Y-125000000D01*
X178630000Y-127940000D01*
X178630000Y-127940000D01*
G37*
G36*
X137630000Y-127940000D02*
G01*
X136330000Y-127940000D01*
X136330000Y-125000000D01*
X137630000Y-125000000D01*
X137630000Y-127940000D01*
X137630000Y-127940000D01*
G37*
G36*
X140530000Y-127940000D02*
G01*
X139230000Y-127940000D01*
X139230000Y-125000000D01*
X140530000Y-125000000D01*
X140530000Y-127940000D01*
X140530000Y-127940000D01*
G37*
G36*
X99530000Y-127940000D02*
G01*
X98230000Y-127940000D01*
X98230000Y-125000000D01*
X99530000Y-125000000D01*
X99530000Y-127940000D01*
X99530000Y-127940000D01*
G37*
G36*
X102430000Y-127940000D02*
G01*
X101130000Y-127940000D01*
X101130000Y-125000000D01*
X102430000Y-125000000D01*
X102430000Y-127940000D01*
X102430000Y-127940000D01*
G37*
G36*
X61430000Y-127940000D02*
G01*
X60130000Y-127940000D01*
X60130000Y-125000000D01*
X61430000Y-125000000D01*
X61430000Y-127940000D01*
X61430000Y-127940000D01*
G37*
G36*
X64330000Y-127940000D02*
G01*
X63030000Y-127940000D01*
X63030000Y-125000000D01*
X64330000Y-125000000D01*
X64330000Y-127940000D01*
X64330000Y-127940000D01*
G37*
G36*
X16980000Y-127940000D02*
G01*
X15680000Y-127940000D01*
X15680000Y-125000000D01*
X16980000Y-125000000D01*
X16980000Y-127940000D01*
X16980000Y-127940000D01*
G37*
G36*
X197728000Y-127720000D02*
G01*
X195028000Y-127720000D01*
X195028000Y-125220000D01*
X197728000Y-125220000D01*
X197728000Y-127720000D01*
X197728000Y-127720000D01*
G37*
G36*
X210485000Y-127720000D02*
G01*
X207785000Y-127720000D01*
X207785000Y-125220000D01*
X210485000Y-125220000D01*
X210485000Y-127720000D01*
X210485000Y-127720000D01*
G37*
G36*
X181871000Y-127720000D02*
G01*
X180071000Y-127720000D01*
X180071000Y-125220000D01*
X181871000Y-125220000D01*
X181871000Y-127720000D01*
X181871000Y-127720000D01*
G37*
G36*
X184971000Y-127720000D02*
G01*
X182271000Y-127720000D01*
X182271000Y-125220000D01*
X184971000Y-125220000D01*
X184971000Y-127720000D01*
X184971000Y-127720000D01*
G37*
G36*
X169114000Y-127720000D02*
G01*
X167314000Y-127720000D01*
X167314000Y-125220000D01*
X169114000Y-125220000D01*
X169114000Y-127720000D01*
X169114000Y-127720000D01*
G37*
G36*
X172214000Y-127720000D02*
G01*
X169514000Y-127720000D01*
X169514000Y-125220000D01*
X172214000Y-125220000D01*
X172214000Y-127720000D01*
X172214000Y-127720000D01*
G37*
G36*
X156357000Y-127720000D02*
G01*
X154557000Y-127720000D01*
X154557000Y-125220000D01*
X156357000Y-125220000D01*
X156357000Y-127720000D01*
X156357000Y-127720000D01*
G37*
G36*
X235999000Y-127720000D02*
G01*
X233299000Y-127720000D01*
X233299000Y-125220000D01*
X235999000Y-125220000D01*
X235999000Y-127720000D01*
X235999000Y-127720000D01*
G37*
G36*
X143600000Y-127720000D02*
G01*
X141800000Y-127720000D01*
X141800000Y-125220000D01*
X143600000Y-125220000D01*
X143600000Y-127720000D01*
X143600000Y-127720000D01*
G37*
G36*
X146700000Y-127720000D02*
G01*
X144000000Y-127720000D01*
X144000000Y-125220000D01*
X146700000Y-125220000D01*
X146700000Y-127720000D01*
X146700000Y-127720000D01*
G37*
G36*
X130843000Y-127720000D02*
G01*
X129043000Y-127720000D01*
X129043000Y-125220000D01*
X130843000Y-125220000D01*
X130843000Y-127720000D01*
X130843000Y-127720000D01*
G37*
G36*
X133943000Y-127720000D02*
G01*
X131243000Y-127720000D01*
X131243000Y-125220000D01*
X133943000Y-125220000D01*
X133943000Y-127720000D01*
X133943000Y-127720000D01*
G37*
G36*
X118086000Y-127720000D02*
G01*
X116286000Y-127720000D01*
X116286000Y-125220000D01*
X118086000Y-125220000D01*
X118086000Y-127720000D01*
X118086000Y-127720000D01*
G37*
G36*
X121186000Y-127720000D02*
G01*
X118486000Y-127720000D01*
X118486000Y-125220000D01*
X121186000Y-125220000D01*
X121186000Y-127720000D01*
X121186000Y-127720000D01*
G37*
G36*
X105329000Y-127720000D02*
G01*
X103529000Y-127720000D01*
X103529000Y-125220000D01*
X105329000Y-125220000D01*
X105329000Y-127720000D01*
X105329000Y-127720000D01*
G37*
G36*
X108429000Y-127720000D02*
G01*
X105729000Y-127720000D01*
X105729000Y-125220000D01*
X108429000Y-125220000D01*
X108429000Y-127720000D01*
X108429000Y-127720000D01*
G37*
G36*
X92572000Y-127720000D02*
G01*
X90772000Y-127720000D01*
X90772000Y-125220000D01*
X92572000Y-125220000D01*
X92572000Y-127720000D01*
X92572000Y-127720000D01*
G37*
G36*
X95672000Y-127720000D02*
G01*
X92972000Y-127720000D01*
X92972000Y-125220000D01*
X95672000Y-125220000D01*
X95672000Y-127720000D01*
X95672000Y-127720000D01*
G37*
G36*
X194628000Y-127720000D02*
G01*
X192828000Y-127720000D01*
X192828000Y-125220000D01*
X194628000Y-125220000D01*
X194628000Y-127720000D01*
X194628000Y-127720000D01*
G37*
G36*
X57401000Y-127720000D02*
G01*
X54701000Y-127720000D01*
X54701000Y-125220000D01*
X57401000Y-125220000D01*
X57401000Y-127720000D01*
X57401000Y-127720000D01*
G37*
G36*
X82915000Y-127720000D02*
G01*
X80215000Y-127720000D01*
X80215000Y-125220000D01*
X82915000Y-125220000D01*
X82915000Y-127720000D01*
X82915000Y-127720000D01*
G37*
G36*
X54301000Y-127720000D02*
G01*
X52501000Y-127720000D01*
X52501000Y-125220000D01*
X54301000Y-125220000D01*
X54301000Y-127720000D01*
X54301000Y-127720000D01*
G37*
G36*
X245656000Y-127720000D02*
G01*
X243856000Y-127720000D01*
X243856000Y-125220000D01*
X245656000Y-125220000D01*
X245656000Y-127720000D01*
X245656000Y-127720000D01*
G37*
G36*
X70158000Y-127720000D02*
G01*
X67458000Y-127720000D01*
X67458000Y-125220000D01*
X70158000Y-125220000D01*
X70158000Y-127720000D01*
X70158000Y-127720000D01*
G37*
G36*
X67058000Y-127720000D02*
G01*
X65258000Y-127720000D01*
X65258000Y-125220000D01*
X67058000Y-125220000D01*
X67058000Y-127720000D01*
X67058000Y-127720000D01*
G37*
G36*
X79815000Y-127720000D02*
G01*
X78015000Y-127720000D01*
X78015000Y-125220000D01*
X79815000Y-125220000D01*
X79815000Y-127720000D01*
X79815000Y-127720000D01*
G37*
G36*
X41544000Y-127720000D02*
G01*
X39744000Y-127720000D01*
X39744000Y-125220000D01*
X41544000Y-125220000D01*
X41544000Y-127720000D01*
X41544000Y-127720000D01*
G37*
G36*
X44644000Y-127720000D02*
G01*
X41944000Y-127720000D01*
X41944000Y-125220000D01*
X44644000Y-125220000D01*
X44644000Y-127720000D01*
X44644000Y-127720000D01*
G37*
G36*
X28787000Y-127720000D02*
G01*
X26987000Y-127720000D01*
X26987000Y-125220000D01*
X28787000Y-125220000D01*
X28787000Y-127720000D01*
X28787000Y-127720000D01*
G37*
G36*
X31887000Y-127720000D02*
G01*
X29187000Y-127720000D01*
X29187000Y-125220000D01*
X31887000Y-125220000D01*
X31887000Y-127720000D01*
X31887000Y-127720000D01*
G37*
G36*
X248756000Y-127720000D02*
G01*
X246056000Y-127720000D01*
X246056000Y-125220000D01*
X248756000Y-125220000D01*
X248756000Y-127720000D01*
X248756000Y-127720000D01*
G37*
G36*
X232899000Y-127720000D02*
G01*
X231099000Y-127720000D01*
X231099000Y-125220000D01*
X232899000Y-125220000D01*
X232899000Y-127720000D01*
X232899000Y-127720000D01*
G37*
G36*
X159457000Y-127720000D02*
G01*
X156757000Y-127720000D01*
X156757000Y-125220000D01*
X159457000Y-125220000D01*
X159457000Y-127720000D01*
X159457000Y-127720000D01*
G37*
G36*
X220142000Y-127720000D02*
G01*
X218342000Y-127720000D01*
X218342000Y-125220000D01*
X220142000Y-125220000D01*
X220142000Y-127720000D01*
X220142000Y-127720000D01*
G37*
G36*
X223242000Y-127720000D02*
G01*
X220542000Y-127720000D01*
X220542000Y-125220000D01*
X223242000Y-125220000D01*
X223242000Y-127720000D01*
X223242000Y-127720000D01*
G37*
G36*
X207385000Y-127720000D02*
G01*
X205585000Y-127720000D01*
X205585000Y-125220000D01*
X207385000Y-125220000D01*
X207385000Y-127720000D01*
X207385000Y-127720000D01*
G37*
G36*
X133843000Y-122688000D02*
G01*
X131343000Y-122688000D01*
X131343000Y-119988000D01*
X133843000Y-119988000D01*
X133843000Y-122688000D01*
X133843000Y-122688000D01*
G37*
G36*
X121086000Y-122688000D02*
G01*
X118586000Y-122688000D01*
X118586000Y-119988000D01*
X121086000Y-119988000D01*
X121086000Y-122688000D01*
X121086000Y-122688000D01*
G37*
G36*
X108329000Y-122688000D02*
G01*
X105829000Y-122688000D01*
X105829000Y-119988000D01*
X108329000Y-119988000D01*
X108329000Y-122688000D01*
X108329000Y-122688000D01*
G37*
G36*
X82815000Y-122688000D02*
G01*
X80315000Y-122688000D01*
X80315000Y-119988000D01*
X82815000Y-119988000D01*
X82815000Y-122688000D01*
X82815000Y-122688000D01*
G37*
G36*
X70058000Y-122688000D02*
G01*
X67558000Y-122688000D01*
X67558000Y-119988000D01*
X70058000Y-119988000D01*
X70058000Y-122688000D01*
X70058000Y-122688000D01*
G37*
G36*
X57301000Y-122688000D02*
G01*
X54801000Y-122688000D01*
X54801000Y-119988000D01*
X57301000Y-119988000D01*
X57301000Y-122688000D01*
X57301000Y-122688000D01*
G37*
G36*
X44544000Y-122688000D02*
G01*
X42044000Y-122688000D01*
X42044000Y-119988000D01*
X44544000Y-119988000D01*
X44544000Y-122688000D01*
X44544000Y-122688000D01*
G37*
G36*
X31787000Y-122688000D02*
G01*
X29287000Y-122688000D01*
X29287000Y-119988000D01*
X31787000Y-119988000D01*
X31787000Y-122688000D01*
X31787000Y-122688000D01*
G37*
G36*
X19030000Y-122688000D02*
G01*
X16530000Y-122688000D01*
X16530000Y-119988000D01*
X19030000Y-119988000D01*
X19030000Y-122688000D01*
X19030000Y-122688000D01*
G37*
G36*
X223142000Y-122688000D02*
G01*
X220642000Y-122688000D01*
X220642000Y-119988000D01*
X223142000Y-119988000D01*
X223142000Y-122688000D01*
X223142000Y-122688000D01*
G37*
G36*
X159357000Y-122688000D02*
G01*
X156857000Y-122688000D01*
X156857000Y-119988000D01*
X159357000Y-119988000D01*
X159357000Y-122688000D01*
X159357000Y-122688000D01*
G37*
G36*
X172114000Y-122688000D02*
G01*
X169614000Y-122688000D01*
X169614000Y-119988000D01*
X172114000Y-119988000D01*
X172114000Y-122688000D01*
X172114000Y-122688000D01*
G37*
G36*
X184871000Y-122688000D02*
G01*
X182371000Y-122688000D01*
X182371000Y-119988000D01*
X184871000Y-119988000D01*
X184871000Y-122688000D01*
X184871000Y-122688000D01*
G37*
G36*
X197628000Y-122688000D02*
G01*
X195128000Y-122688000D01*
X195128000Y-119988000D01*
X197628000Y-119988000D01*
X197628000Y-122688000D01*
X197628000Y-122688000D01*
G37*
G36*
X210385000Y-122688000D02*
G01*
X207885000Y-122688000D01*
X207885000Y-119988000D01*
X210385000Y-119988000D01*
X210385000Y-122688000D01*
X210385000Y-122688000D01*
G37*
G36*
X95572000Y-122688000D02*
G01*
X93072000Y-122688000D01*
X93072000Y-119988000D01*
X95572000Y-119988000D01*
X95572000Y-122688000D01*
X95572000Y-122688000D01*
G37*
G36*
X235899000Y-122688000D02*
G01*
X233399000Y-122688000D01*
X233399000Y-119988000D01*
X235899000Y-119988000D01*
X235899000Y-122688000D01*
X235899000Y-122688000D01*
G37*
G36*
X248656000Y-122688000D02*
G01*
X246156000Y-122688000D01*
X246156000Y-119988000D01*
X248656000Y-119988000D01*
X248656000Y-122688000D01*
X248656000Y-122688000D01*
G37*
G36*
X261410000Y-122688000D02*
G01*
X258910000Y-122688000D01*
X258910000Y-119988000D01*
X261410000Y-119988000D01*
X261410000Y-122688000D01*
X261410000Y-122688000D01*
G37*
G36*
X146600000Y-122688000D02*
G01*
X144100000Y-122688000D01*
X144100000Y-119988000D01*
X146600000Y-119988000D01*
X146600000Y-122688000D01*
X146600000Y-122688000D01*
G37*
G36*
X229650000Y-120930000D02*
G01*
X227550000Y-120930000D01*
X227550000Y-118830000D01*
X229650000Y-118830000D01*
X229650000Y-120930000D01*
X229650000Y-120930000D01*
G37*
G36*
X70058000Y-119588000D02*
G01*
X67558000Y-119588000D01*
X67558000Y-117788000D01*
X70058000Y-117788000D01*
X70058000Y-119588000D01*
X70058000Y-119588000D01*
G37*
G36*
X57301000Y-119588000D02*
G01*
X54801000Y-119588000D01*
X54801000Y-117788000D01*
X57301000Y-117788000D01*
X57301000Y-119588000D01*
X57301000Y-119588000D01*
G37*
G36*
X31787000Y-119588000D02*
G01*
X29287000Y-119588000D01*
X29287000Y-117788000D01*
X31787000Y-117788000D01*
X31787000Y-119588000D01*
X31787000Y-119588000D01*
G37*
G36*
X19030000Y-119588000D02*
G01*
X16530000Y-119588000D01*
X16530000Y-117788000D01*
X19030000Y-117788000D01*
X19030000Y-119588000D01*
X19030000Y-119588000D01*
G37*
G36*
X82815000Y-119588000D02*
G01*
X80315000Y-119588000D01*
X80315000Y-117788000D01*
X82815000Y-117788000D01*
X82815000Y-119588000D01*
X82815000Y-119588000D01*
G37*
G36*
X44544000Y-119588000D02*
G01*
X42044000Y-119588000D01*
X42044000Y-117788000D01*
X44544000Y-117788000D01*
X44544000Y-119588000D01*
X44544000Y-119588000D01*
G37*
G36*
X172114000Y-119588000D02*
G01*
X169614000Y-119588000D01*
X169614000Y-117788000D01*
X172114000Y-117788000D01*
X172114000Y-119588000D01*
X172114000Y-119588000D01*
G37*
G36*
X248656000Y-119588000D02*
G01*
X246156000Y-119588000D01*
X246156000Y-117788000D01*
X248656000Y-117788000D01*
X248656000Y-119588000D01*
X248656000Y-119588000D01*
G37*
G36*
X159357000Y-119588000D02*
G01*
X156857000Y-119588000D01*
X156857000Y-117788000D01*
X159357000Y-117788000D01*
X159357000Y-119588000D01*
X159357000Y-119588000D01*
G37*
G36*
X235899000Y-119588000D02*
G01*
X233399000Y-119588000D01*
X233399000Y-117788000D01*
X235899000Y-117788000D01*
X235899000Y-119588000D01*
X235899000Y-119588000D01*
G37*
G36*
X223142000Y-119588000D02*
G01*
X220642000Y-119588000D01*
X220642000Y-117788000D01*
X223142000Y-117788000D01*
X223142000Y-119588000D01*
X223142000Y-119588000D01*
G37*
G36*
X133843000Y-119588000D02*
G01*
X131343000Y-119588000D01*
X131343000Y-117788000D01*
X133843000Y-117788000D01*
X133843000Y-119588000D01*
X133843000Y-119588000D01*
G37*
G36*
X210385000Y-119588000D02*
G01*
X207885000Y-119588000D01*
X207885000Y-117788000D01*
X210385000Y-117788000D01*
X210385000Y-119588000D01*
X210385000Y-119588000D01*
G37*
G36*
X121086000Y-119588000D02*
G01*
X118586000Y-119588000D01*
X118586000Y-117788000D01*
X121086000Y-117788000D01*
X121086000Y-119588000D01*
X121086000Y-119588000D01*
G37*
G36*
X197628000Y-119588000D02*
G01*
X195128000Y-119588000D01*
X195128000Y-117788000D01*
X197628000Y-117788000D01*
X197628000Y-119588000D01*
X197628000Y-119588000D01*
G37*
G36*
X95572000Y-119588000D02*
G01*
X93072000Y-119588000D01*
X93072000Y-117788000D01*
X95572000Y-117788000D01*
X95572000Y-119588000D01*
X95572000Y-119588000D01*
G37*
G36*
X108329000Y-119588000D02*
G01*
X105829000Y-119588000D01*
X105829000Y-117788000D01*
X108329000Y-117788000D01*
X108329000Y-119588000D01*
X108329000Y-119588000D01*
G37*
G36*
X184871000Y-119588000D02*
G01*
X182371000Y-119588000D01*
X182371000Y-117788000D01*
X184871000Y-117788000D01*
X184871000Y-119588000D01*
X184871000Y-119588000D01*
G37*
G36*
X261410000Y-119588000D02*
G01*
X258910000Y-119588000D01*
X258910000Y-117788000D01*
X261410000Y-117788000D01*
X261410000Y-119588000D01*
X261410000Y-119588000D01*
G37*
G36*
X146600000Y-119588000D02*
G01*
X144100000Y-119588000D01*
X144100000Y-117788000D01*
X146600000Y-117788000D01*
X146600000Y-119588000D01*
X146600000Y-119588000D01*
G37*
G36*
X139480000Y-114412000D02*
G01*
X138815267Y-114412000D01*
X138790881Y-114414402D01*
X138767432Y-114421515D01*
X138745821Y-114433066D01*
X138726879Y-114448611D01*
X138711334Y-114467553D01*
X138699783Y-114489164D01*
X138692670Y-114512613D01*
X138690268Y-114536999D01*
X138692670Y-114561385D01*
X138699783Y-114584834D01*
X138711334Y-114606445D01*
X138726879Y-114625387D01*
X138745821Y-114640932D01*
X138767432Y-114652483D01*
X138778977Y-114656614D01*
X138833762Y-114673233D01*
X138833764Y-114673234D01*
X139016170Y-114770732D01*
X139176055Y-114901945D01*
X139307268Y-115061830D01*
X139404766Y-115244235D01*
X139404767Y-115244238D01*
X139464807Y-115442164D01*
X139485080Y-115648000D01*
X139464807Y-115853836D01*
X139404767Y-116051762D01*
X139404766Y-116051765D01*
X139307268Y-116234170D01*
X139176055Y-116394055D01*
X139016170Y-116525268D01*
X138833765Y-116622766D01*
X138833762Y-116622767D01*
X138673489Y-116671385D01*
X138650855Y-116680761D01*
X138630481Y-116694374D01*
X138613154Y-116711701D01*
X138599540Y-116732076D01*
X138590163Y-116754714D01*
X138585382Y-116778748D01*
X138585382Y-116803252D01*
X138590162Y-116827285D01*
X138599540Y-116849924D01*
X138613153Y-116870298D01*
X138630480Y-116887625D01*
X138650855Y-116901239D01*
X138673489Y-116910615D01*
X138833762Y-116959233D01*
X138833765Y-116959234D01*
X139016170Y-117056732D01*
X139176055Y-117187945D01*
X139307268Y-117347830D01*
X139404766Y-117530235D01*
X139404767Y-117530238D01*
X139464807Y-117728164D01*
X139485080Y-117934000D01*
X139464807Y-118139836D01*
X139404767Y-118337762D01*
X139404766Y-118337765D01*
X139307268Y-118520170D01*
X139176055Y-118680055D01*
X139016170Y-118811268D01*
X138833765Y-118908766D01*
X138833762Y-118908767D01*
X138635836Y-118968807D01*
X138558707Y-118976403D01*
X138481580Y-118984000D01*
X138378420Y-118984000D01*
X138301293Y-118976403D01*
X138224164Y-118968807D01*
X138026238Y-118908767D01*
X138026235Y-118908766D01*
X137843830Y-118811268D01*
X137683945Y-118680055D01*
X137552732Y-118520170D01*
X137455234Y-118337765D01*
X137455233Y-118337762D01*
X137395193Y-118139836D01*
X137374920Y-117934000D01*
X137395193Y-117728164D01*
X137455233Y-117530238D01*
X137455234Y-117530235D01*
X137552732Y-117347830D01*
X137683945Y-117187945D01*
X137843830Y-117056732D01*
X138026235Y-116959234D01*
X138026238Y-116959233D01*
X138186511Y-116910615D01*
X138209145Y-116901239D01*
X138229519Y-116887626D01*
X138246846Y-116870299D01*
X138260460Y-116849924D01*
X138269837Y-116827286D01*
X138274618Y-116803252D01*
X138274618Y-116778748D01*
X138269838Y-116754715D01*
X138260460Y-116732076D01*
X138246847Y-116711702D01*
X138229520Y-116694375D01*
X138209145Y-116680761D01*
X138186511Y-116671385D01*
X138026238Y-116622767D01*
X138026235Y-116622766D01*
X137843830Y-116525268D01*
X137683945Y-116394055D01*
X137552732Y-116234170D01*
X137455234Y-116051765D01*
X137455233Y-116051762D01*
X137395193Y-115853836D01*
X137374920Y-115648000D01*
X137395193Y-115442164D01*
X137455233Y-115244238D01*
X137455234Y-115244235D01*
X137552732Y-115061830D01*
X137683945Y-114901945D01*
X137843830Y-114770732D01*
X138026236Y-114673234D01*
X138026238Y-114673233D01*
X138081020Y-114656615D01*
X138103657Y-114647238D01*
X138124031Y-114633625D01*
X138141358Y-114616298D01*
X138154972Y-114595923D01*
X138164350Y-114573284D01*
X138169130Y-114549251D01*
X138169130Y-114524747D01*
X138164350Y-114500714D01*
X138154972Y-114478075D01*
X138141359Y-114457701D01*
X138124032Y-114440374D01*
X138103657Y-114426760D01*
X138081018Y-114417382D01*
X138056985Y-114412602D01*
X138044733Y-114412000D01*
X137380000Y-114412000D01*
X137380000Y-112312000D01*
X139480000Y-112312000D01*
X139480000Y-114412000D01*
X139480000Y-114412000D01*
G37*
G36*
X63280000Y-114412000D02*
G01*
X62615267Y-114412000D01*
X62590881Y-114414402D01*
X62567432Y-114421515D01*
X62545821Y-114433066D01*
X62526879Y-114448611D01*
X62511334Y-114467553D01*
X62499783Y-114489164D01*
X62492670Y-114512613D01*
X62490268Y-114536999D01*
X62492670Y-114561385D01*
X62499783Y-114584834D01*
X62511334Y-114606445D01*
X62526879Y-114625387D01*
X62545821Y-114640932D01*
X62567432Y-114652483D01*
X62578977Y-114656614D01*
X62633762Y-114673233D01*
X62633764Y-114673234D01*
X62816170Y-114770732D01*
X62976055Y-114901945D01*
X63107268Y-115061830D01*
X63204766Y-115244235D01*
X63204767Y-115244238D01*
X63264807Y-115442164D01*
X63285080Y-115648000D01*
X63264807Y-115853836D01*
X63204767Y-116051762D01*
X63204766Y-116051765D01*
X63107268Y-116234170D01*
X62976055Y-116394055D01*
X62816170Y-116525268D01*
X62633765Y-116622766D01*
X62633762Y-116622767D01*
X62473489Y-116671385D01*
X62450855Y-116680761D01*
X62430481Y-116694374D01*
X62413154Y-116711701D01*
X62399540Y-116732076D01*
X62390163Y-116754714D01*
X62385382Y-116778748D01*
X62385382Y-116803252D01*
X62390162Y-116827285D01*
X62399540Y-116849924D01*
X62413153Y-116870298D01*
X62430480Y-116887625D01*
X62450855Y-116901239D01*
X62473489Y-116910615D01*
X62633762Y-116959233D01*
X62633765Y-116959234D01*
X62816170Y-117056732D01*
X62976055Y-117187945D01*
X63107268Y-117347830D01*
X63204766Y-117530235D01*
X63204767Y-117530238D01*
X63264807Y-117728164D01*
X63285080Y-117934000D01*
X63264807Y-118139836D01*
X63204767Y-118337762D01*
X63204766Y-118337765D01*
X63107268Y-118520170D01*
X62976055Y-118680055D01*
X62816170Y-118811268D01*
X62633765Y-118908766D01*
X62633762Y-118908767D01*
X62435836Y-118968807D01*
X62358707Y-118976403D01*
X62281580Y-118984000D01*
X62178420Y-118984000D01*
X62101293Y-118976403D01*
X62024164Y-118968807D01*
X61826238Y-118908767D01*
X61826235Y-118908766D01*
X61643830Y-118811268D01*
X61483945Y-118680055D01*
X61352732Y-118520170D01*
X61255234Y-118337765D01*
X61255233Y-118337762D01*
X61195193Y-118139836D01*
X61174920Y-117934000D01*
X61195193Y-117728164D01*
X61255233Y-117530238D01*
X61255234Y-117530235D01*
X61352732Y-117347830D01*
X61483945Y-117187945D01*
X61643830Y-117056732D01*
X61826235Y-116959234D01*
X61826238Y-116959233D01*
X61986511Y-116910615D01*
X62009145Y-116901239D01*
X62029519Y-116887626D01*
X62046846Y-116870299D01*
X62060460Y-116849924D01*
X62069837Y-116827286D01*
X62074618Y-116803252D01*
X62074618Y-116778748D01*
X62069838Y-116754715D01*
X62060460Y-116732076D01*
X62046847Y-116711702D01*
X62029520Y-116694375D01*
X62009145Y-116680761D01*
X61986511Y-116671385D01*
X61826238Y-116622767D01*
X61826235Y-116622766D01*
X61643830Y-116525268D01*
X61483945Y-116394055D01*
X61352732Y-116234170D01*
X61255234Y-116051765D01*
X61255233Y-116051762D01*
X61195193Y-115853836D01*
X61174920Y-115648000D01*
X61195193Y-115442164D01*
X61255233Y-115244238D01*
X61255234Y-115244235D01*
X61352732Y-115061830D01*
X61483945Y-114901945D01*
X61643830Y-114770732D01*
X61826236Y-114673234D01*
X61826238Y-114673233D01*
X61881020Y-114656615D01*
X61903657Y-114647238D01*
X61924031Y-114633625D01*
X61941358Y-114616298D01*
X61954972Y-114595923D01*
X61964350Y-114573284D01*
X61969130Y-114549251D01*
X61969130Y-114524747D01*
X61964350Y-114500714D01*
X61954972Y-114478075D01*
X61941359Y-114457701D01*
X61924032Y-114440374D01*
X61903657Y-114426760D01*
X61881018Y-114417382D01*
X61856985Y-114412602D01*
X61844733Y-114412000D01*
X61180000Y-114412000D01*
X61180000Y-112312000D01*
X63280000Y-112312000D01*
X63280000Y-114412000D01*
X63280000Y-114412000D01*
G37*
G36*
X101380000Y-114412000D02*
G01*
X100715267Y-114412000D01*
X100690881Y-114414402D01*
X100667432Y-114421515D01*
X100645821Y-114433066D01*
X100626879Y-114448611D01*
X100611334Y-114467553D01*
X100599783Y-114489164D01*
X100592670Y-114512613D01*
X100590268Y-114536999D01*
X100592670Y-114561385D01*
X100599783Y-114584834D01*
X100611334Y-114606445D01*
X100626879Y-114625387D01*
X100645821Y-114640932D01*
X100667432Y-114652483D01*
X100678977Y-114656614D01*
X100733762Y-114673233D01*
X100733764Y-114673234D01*
X100916170Y-114770732D01*
X101076055Y-114901945D01*
X101207268Y-115061830D01*
X101304766Y-115244235D01*
X101304767Y-115244238D01*
X101364807Y-115442164D01*
X101385080Y-115648000D01*
X101364807Y-115853836D01*
X101304767Y-116051762D01*
X101304766Y-116051765D01*
X101207268Y-116234170D01*
X101076055Y-116394055D01*
X100916170Y-116525268D01*
X100733765Y-116622766D01*
X100733762Y-116622767D01*
X100573489Y-116671385D01*
X100550855Y-116680761D01*
X100530481Y-116694374D01*
X100513154Y-116711701D01*
X100499540Y-116732076D01*
X100490163Y-116754714D01*
X100485382Y-116778748D01*
X100485382Y-116803252D01*
X100490162Y-116827285D01*
X100499540Y-116849924D01*
X100513153Y-116870298D01*
X100530480Y-116887625D01*
X100550855Y-116901239D01*
X100573489Y-116910615D01*
X100733762Y-116959233D01*
X100733765Y-116959234D01*
X100916170Y-117056732D01*
X101076055Y-117187945D01*
X101207268Y-117347830D01*
X101304766Y-117530235D01*
X101304767Y-117530238D01*
X101364807Y-117728164D01*
X101385080Y-117934000D01*
X101364807Y-118139836D01*
X101304767Y-118337762D01*
X101304766Y-118337765D01*
X101207268Y-118520170D01*
X101076055Y-118680055D01*
X100916170Y-118811268D01*
X100733765Y-118908766D01*
X100733762Y-118908767D01*
X100535836Y-118968807D01*
X100458707Y-118976403D01*
X100381580Y-118984000D01*
X100278420Y-118984000D01*
X100201293Y-118976403D01*
X100124164Y-118968807D01*
X99926238Y-118908767D01*
X99926235Y-118908766D01*
X99743830Y-118811268D01*
X99583945Y-118680055D01*
X99452732Y-118520170D01*
X99355234Y-118337765D01*
X99355233Y-118337762D01*
X99295193Y-118139836D01*
X99274920Y-117934000D01*
X99295193Y-117728164D01*
X99355233Y-117530238D01*
X99355234Y-117530235D01*
X99452732Y-117347830D01*
X99583945Y-117187945D01*
X99743830Y-117056732D01*
X99926235Y-116959234D01*
X99926238Y-116959233D01*
X100086511Y-116910615D01*
X100109145Y-116901239D01*
X100129519Y-116887626D01*
X100146846Y-116870299D01*
X100160460Y-116849924D01*
X100169837Y-116827286D01*
X100174618Y-116803252D01*
X100174618Y-116778748D01*
X100169838Y-116754715D01*
X100160460Y-116732076D01*
X100146847Y-116711702D01*
X100129520Y-116694375D01*
X100109145Y-116680761D01*
X100086511Y-116671385D01*
X99926238Y-116622767D01*
X99926235Y-116622766D01*
X99743830Y-116525268D01*
X99583945Y-116394055D01*
X99452732Y-116234170D01*
X99355234Y-116051765D01*
X99355233Y-116051762D01*
X99295193Y-115853836D01*
X99274920Y-115648000D01*
X99295193Y-115442164D01*
X99355233Y-115244238D01*
X99355234Y-115244235D01*
X99452732Y-115061830D01*
X99583945Y-114901945D01*
X99743830Y-114770732D01*
X99926236Y-114673234D01*
X99926238Y-114673233D01*
X99981020Y-114656615D01*
X100003657Y-114647238D01*
X100024031Y-114633625D01*
X100041358Y-114616298D01*
X100054972Y-114595923D01*
X100064350Y-114573284D01*
X100069130Y-114549251D01*
X100069130Y-114524747D01*
X100064350Y-114500714D01*
X100054972Y-114478075D01*
X100041359Y-114457701D01*
X100024032Y-114440374D01*
X100003657Y-114426760D01*
X99981018Y-114417382D01*
X99956985Y-114412602D01*
X99944733Y-114412000D01*
X99280000Y-114412000D01*
X99280000Y-112312000D01*
X101380000Y-112312000D01*
X101380000Y-114412000D01*
X101380000Y-114412000D01*
G37*
G36*
X216950000Y-114412000D02*
G01*
X216285267Y-114412000D01*
X216260881Y-114414402D01*
X216237432Y-114421515D01*
X216215821Y-114433066D01*
X216196879Y-114448611D01*
X216181334Y-114467553D01*
X216169783Y-114489164D01*
X216162670Y-114512613D01*
X216160268Y-114536999D01*
X216162670Y-114561385D01*
X216169783Y-114584834D01*
X216181334Y-114606445D01*
X216196879Y-114625387D01*
X216215821Y-114640932D01*
X216237432Y-114652483D01*
X216248977Y-114656614D01*
X216303762Y-114673233D01*
X216303764Y-114673234D01*
X216486170Y-114770732D01*
X216646055Y-114901945D01*
X216777268Y-115061830D01*
X216874766Y-115244235D01*
X216874767Y-115244238D01*
X216934807Y-115442164D01*
X216955080Y-115648000D01*
X216934807Y-115853836D01*
X216874767Y-116051762D01*
X216874766Y-116051765D01*
X216777268Y-116234170D01*
X216646055Y-116394055D01*
X216486170Y-116525268D01*
X216303765Y-116622766D01*
X216303762Y-116622767D01*
X216143489Y-116671385D01*
X216120855Y-116680761D01*
X216100481Y-116694374D01*
X216083154Y-116711701D01*
X216069540Y-116732076D01*
X216060163Y-116754714D01*
X216055382Y-116778748D01*
X216055382Y-116803252D01*
X216060162Y-116827285D01*
X216069540Y-116849924D01*
X216083153Y-116870298D01*
X216100480Y-116887625D01*
X216120855Y-116901239D01*
X216143489Y-116910615D01*
X216303762Y-116959233D01*
X216303765Y-116959234D01*
X216486170Y-117056732D01*
X216646055Y-117187945D01*
X216777268Y-117347830D01*
X216874766Y-117530235D01*
X216874767Y-117530238D01*
X216934807Y-117728164D01*
X216955080Y-117934000D01*
X216934807Y-118139836D01*
X216874767Y-118337762D01*
X216874766Y-118337765D01*
X216777268Y-118520170D01*
X216646055Y-118680055D01*
X216486170Y-118811268D01*
X216303765Y-118908766D01*
X216303762Y-118908767D01*
X216105836Y-118968807D01*
X216028707Y-118976403D01*
X215951580Y-118984000D01*
X215848420Y-118984000D01*
X215771293Y-118976403D01*
X215694164Y-118968807D01*
X215496238Y-118908767D01*
X215496235Y-118908766D01*
X215313830Y-118811268D01*
X215153945Y-118680055D01*
X215022732Y-118520170D01*
X214925234Y-118337765D01*
X214925233Y-118337762D01*
X214865193Y-118139836D01*
X214844920Y-117934000D01*
X214865193Y-117728164D01*
X214925233Y-117530238D01*
X214925234Y-117530235D01*
X215022732Y-117347830D01*
X215153945Y-117187945D01*
X215313830Y-117056732D01*
X215496235Y-116959234D01*
X215496238Y-116959233D01*
X215656511Y-116910615D01*
X215679145Y-116901239D01*
X215699519Y-116887626D01*
X215716846Y-116870299D01*
X215730460Y-116849924D01*
X215739837Y-116827286D01*
X215744618Y-116803252D01*
X215744618Y-116778748D01*
X215739838Y-116754715D01*
X215730460Y-116732076D01*
X215716847Y-116711702D01*
X215699520Y-116694375D01*
X215679145Y-116680761D01*
X215656511Y-116671385D01*
X215496238Y-116622767D01*
X215496235Y-116622766D01*
X215313830Y-116525268D01*
X215153945Y-116394055D01*
X215022732Y-116234170D01*
X214925234Y-116051765D01*
X214925233Y-116051762D01*
X214865193Y-115853836D01*
X214844920Y-115648000D01*
X214865193Y-115442164D01*
X214925233Y-115244238D01*
X214925234Y-115244235D01*
X215022732Y-115061830D01*
X215153945Y-114901945D01*
X215313830Y-114770732D01*
X215496236Y-114673234D01*
X215496238Y-114673233D01*
X215551020Y-114656615D01*
X215573657Y-114647238D01*
X215594031Y-114633625D01*
X215611358Y-114616298D01*
X215624972Y-114595923D01*
X215634350Y-114573284D01*
X215639130Y-114549251D01*
X215639130Y-114524747D01*
X215634350Y-114500714D01*
X215624972Y-114478075D01*
X215611359Y-114457701D01*
X215594032Y-114440374D01*
X215573657Y-114426760D01*
X215551018Y-114417382D01*
X215526985Y-114412602D01*
X215514733Y-114412000D01*
X214850000Y-114412000D01*
X214850000Y-112312000D01*
X216950000Y-112312000D01*
X216950000Y-114412000D01*
X216950000Y-114412000D01*
G37*
G36*
X253780000Y-114412000D02*
G01*
X253115267Y-114412000D01*
X253090881Y-114414402D01*
X253067432Y-114421515D01*
X253045821Y-114433066D01*
X253026879Y-114448611D01*
X253011334Y-114467553D01*
X252999783Y-114489164D01*
X252992670Y-114512613D01*
X252990268Y-114536999D01*
X252992670Y-114561385D01*
X252999783Y-114584834D01*
X253011334Y-114606445D01*
X253026879Y-114625387D01*
X253045821Y-114640932D01*
X253067432Y-114652483D01*
X253078977Y-114656614D01*
X253133762Y-114673233D01*
X253133764Y-114673234D01*
X253316170Y-114770732D01*
X253476055Y-114901945D01*
X253607268Y-115061830D01*
X253704766Y-115244235D01*
X253704767Y-115244238D01*
X253764807Y-115442164D01*
X253785080Y-115648000D01*
X253764807Y-115853836D01*
X253704767Y-116051762D01*
X253704766Y-116051765D01*
X253607268Y-116234170D01*
X253476055Y-116394055D01*
X253316170Y-116525268D01*
X253133765Y-116622766D01*
X253133762Y-116622767D01*
X252973489Y-116671385D01*
X252950855Y-116680761D01*
X252930481Y-116694374D01*
X252913154Y-116711701D01*
X252899540Y-116732076D01*
X252890163Y-116754714D01*
X252885382Y-116778748D01*
X252885382Y-116803252D01*
X252890162Y-116827285D01*
X252899540Y-116849924D01*
X252913153Y-116870298D01*
X252930480Y-116887625D01*
X252950855Y-116901239D01*
X252973489Y-116910615D01*
X253133762Y-116959233D01*
X253133765Y-116959234D01*
X253316170Y-117056732D01*
X253476055Y-117187945D01*
X253607268Y-117347830D01*
X253704766Y-117530235D01*
X253704767Y-117530238D01*
X253764807Y-117728164D01*
X253785080Y-117934000D01*
X253764807Y-118139836D01*
X253704767Y-118337762D01*
X253704766Y-118337765D01*
X253607268Y-118520170D01*
X253476055Y-118680055D01*
X253316170Y-118811268D01*
X253133765Y-118908766D01*
X253133762Y-118908767D01*
X252935836Y-118968807D01*
X252858707Y-118976403D01*
X252781580Y-118984000D01*
X252678420Y-118984000D01*
X252601293Y-118976403D01*
X252524164Y-118968807D01*
X252326238Y-118908767D01*
X252326235Y-118908766D01*
X252143830Y-118811268D01*
X251983945Y-118680055D01*
X251852732Y-118520170D01*
X251755234Y-118337765D01*
X251755233Y-118337762D01*
X251695193Y-118139836D01*
X251674920Y-117934000D01*
X251695193Y-117728164D01*
X251755233Y-117530238D01*
X251755234Y-117530235D01*
X251852732Y-117347830D01*
X251983945Y-117187945D01*
X252143830Y-117056732D01*
X252326235Y-116959234D01*
X252326238Y-116959233D01*
X252486511Y-116910615D01*
X252509145Y-116901239D01*
X252529519Y-116887626D01*
X252546846Y-116870299D01*
X252560460Y-116849924D01*
X252569837Y-116827286D01*
X252574618Y-116803252D01*
X252574618Y-116778748D01*
X252569838Y-116754715D01*
X252560460Y-116732076D01*
X252546847Y-116711702D01*
X252529520Y-116694375D01*
X252509145Y-116680761D01*
X252486511Y-116671385D01*
X252326238Y-116622767D01*
X252326235Y-116622766D01*
X252143830Y-116525268D01*
X251983945Y-116394055D01*
X251852732Y-116234170D01*
X251755234Y-116051765D01*
X251755233Y-116051762D01*
X251695193Y-115853836D01*
X251674920Y-115648000D01*
X251695193Y-115442164D01*
X251755233Y-115244238D01*
X251755234Y-115244235D01*
X251852732Y-115061830D01*
X251983945Y-114901945D01*
X252143830Y-114770732D01*
X252326236Y-114673234D01*
X252326238Y-114673233D01*
X252381020Y-114656615D01*
X252403657Y-114647238D01*
X252424031Y-114633625D01*
X252441358Y-114616298D01*
X252454972Y-114595923D01*
X252464350Y-114573284D01*
X252469130Y-114549251D01*
X252469130Y-114524747D01*
X252464350Y-114500714D01*
X252454972Y-114478075D01*
X252441359Y-114457701D01*
X252424032Y-114440374D01*
X252403657Y-114426760D01*
X252381018Y-114417382D01*
X252356985Y-114412602D01*
X252344733Y-114412000D01*
X251680000Y-114412000D01*
X251680000Y-112312000D01*
X253780000Y-112312000D01*
X253780000Y-114412000D01*
X253780000Y-114412000D01*
G37*
G36*
X177760000Y-114412000D02*
G01*
X177095267Y-114412000D01*
X177070881Y-114414402D01*
X177047432Y-114421515D01*
X177025821Y-114433066D01*
X177006879Y-114448611D01*
X176991334Y-114467553D01*
X176979783Y-114489164D01*
X176972670Y-114512613D01*
X176970268Y-114536999D01*
X176972670Y-114561385D01*
X176979783Y-114584834D01*
X176991334Y-114606445D01*
X177006879Y-114625387D01*
X177025821Y-114640932D01*
X177047432Y-114652483D01*
X177058977Y-114656614D01*
X177113762Y-114673233D01*
X177113764Y-114673234D01*
X177296170Y-114770732D01*
X177456055Y-114901945D01*
X177587268Y-115061830D01*
X177684766Y-115244235D01*
X177684767Y-115244238D01*
X177744807Y-115442164D01*
X177765080Y-115648000D01*
X177744807Y-115853836D01*
X177684767Y-116051762D01*
X177684766Y-116051765D01*
X177587268Y-116234170D01*
X177456055Y-116394055D01*
X177296170Y-116525268D01*
X177113765Y-116622766D01*
X177113762Y-116622767D01*
X176953489Y-116671385D01*
X176930855Y-116680761D01*
X176910481Y-116694374D01*
X176893154Y-116711701D01*
X176879540Y-116732076D01*
X176870163Y-116754714D01*
X176865382Y-116778748D01*
X176865382Y-116803252D01*
X176870162Y-116827285D01*
X176879540Y-116849924D01*
X176893153Y-116870298D01*
X176910480Y-116887625D01*
X176930855Y-116901239D01*
X176953489Y-116910615D01*
X177113762Y-116959233D01*
X177113765Y-116959234D01*
X177296170Y-117056732D01*
X177456055Y-117187945D01*
X177587268Y-117347830D01*
X177684766Y-117530235D01*
X177684767Y-117530238D01*
X177744807Y-117728164D01*
X177765080Y-117934000D01*
X177744807Y-118139836D01*
X177684767Y-118337762D01*
X177684766Y-118337765D01*
X177587268Y-118520170D01*
X177456055Y-118680055D01*
X177296170Y-118811268D01*
X177113765Y-118908766D01*
X177113762Y-118908767D01*
X176915836Y-118968807D01*
X176838707Y-118976403D01*
X176761580Y-118984000D01*
X176658420Y-118984000D01*
X176581293Y-118976403D01*
X176504164Y-118968807D01*
X176306238Y-118908767D01*
X176306235Y-118908766D01*
X176123830Y-118811268D01*
X175963945Y-118680055D01*
X175832732Y-118520170D01*
X175735234Y-118337765D01*
X175735233Y-118337762D01*
X175675193Y-118139836D01*
X175654920Y-117934000D01*
X175675193Y-117728164D01*
X175735233Y-117530238D01*
X175735234Y-117530235D01*
X175832732Y-117347830D01*
X175963945Y-117187945D01*
X176123830Y-117056732D01*
X176306235Y-116959234D01*
X176306238Y-116959233D01*
X176466511Y-116910615D01*
X176489145Y-116901239D01*
X176509519Y-116887626D01*
X176526846Y-116870299D01*
X176540460Y-116849924D01*
X176549837Y-116827286D01*
X176554618Y-116803252D01*
X176554618Y-116778748D01*
X176549838Y-116754715D01*
X176540460Y-116732076D01*
X176526847Y-116711702D01*
X176509520Y-116694375D01*
X176489145Y-116680761D01*
X176466511Y-116671385D01*
X176306238Y-116622767D01*
X176306235Y-116622766D01*
X176123830Y-116525268D01*
X175963945Y-116394055D01*
X175832732Y-116234170D01*
X175735234Y-116051765D01*
X175735233Y-116051762D01*
X175675193Y-115853836D01*
X175654920Y-115648000D01*
X175675193Y-115442164D01*
X175735233Y-115244238D01*
X175735234Y-115244235D01*
X175832732Y-115061830D01*
X175963945Y-114901945D01*
X176123830Y-114770732D01*
X176306236Y-114673234D01*
X176306238Y-114673233D01*
X176361020Y-114656615D01*
X176383657Y-114647238D01*
X176404031Y-114633625D01*
X176421358Y-114616298D01*
X176434972Y-114595923D01*
X176444350Y-114573284D01*
X176449130Y-114549251D01*
X176449130Y-114524747D01*
X176444350Y-114500714D01*
X176434972Y-114478075D01*
X176421359Y-114457701D01*
X176404032Y-114440374D01*
X176383657Y-114426760D01*
X176361018Y-114417382D01*
X176336985Y-114412602D01*
X176324733Y-114412000D01*
X175660000Y-114412000D01*
X175660000Y-112312000D01*
X177760000Y-112312000D01*
X177760000Y-114412000D01*
X177760000Y-114412000D01*
G37*
G36*
X229650000Y-117120000D02*
G01*
X227550000Y-117120000D01*
X227550000Y-115020000D01*
X229650000Y-115020000D01*
X229650000Y-117120000D01*
X229650000Y-117120000D01*
G37*
G36*
X184871000Y-116912000D02*
G01*
X182371000Y-116912000D01*
X182371000Y-114212000D01*
X184871000Y-114212000D01*
X184871000Y-116912000D01*
X184871000Y-116912000D01*
G37*
G36*
X133843000Y-116912000D02*
G01*
X131343000Y-116912000D01*
X131343000Y-114212000D01*
X133843000Y-114212000D01*
X133843000Y-116912000D01*
X133843000Y-116912000D01*
G37*
G36*
X121086000Y-116912000D02*
G01*
X118586000Y-116912000D01*
X118586000Y-114212000D01*
X121086000Y-114212000D01*
X121086000Y-116912000D01*
X121086000Y-116912000D01*
G37*
G36*
X108329000Y-116912000D02*
G01*
X105829000Y-116912000D01*
X105829000Y-114212000D01*
X108329000Y-114212000D01*
X108329000Y-116912000D01*
X108329000Y-116912000D01*
G37*
G36*
X95572000Y-116912000D02*
G01*
X93072000Y-116912000D01*
X93072000Y-114212000D01*
X95572000Y-114212000D01*
X95572000Y-116912000D01*
X95572000Y-116912000D01*
G37*
G36*
X82815000Y-116912000D02*
G01*
X80315000Y-116912000D01*
X80315000Y-114212000D01*
X82815000Y-114212000D01*
X82815000Y-116912000D01*
X82815000Y-116912000D01*
G37*
G36*
X70058000Y-116912000D02*
G01*
X67558000Y-116912000D01*
X67558000Y-114212000D01*
X70058000Y-114212000D01*
X70058000Y-116912000D01*
X70058000Y-116912000D01*
G37*
G36*
X57301000Y-116912000D02*
G01*
X54801000Y-116912000D01*
X54801000Y-114212000D01*
X57301000Y-114212000D01*
X57301000Y-116912000D01*
X57301000Y-116912000D01*
G37*
G36*
X44544000Y-116912000D02*
G01*
X42044000Y-116912000D01*
X42044000Y-114212000D01*
X44544000Y-114212000D01*
X44544000Y-116912000D01*
X44544000Y-116912000D01*
G37*
G36*
X146600000Y-116912000D02*
G01*
X144100000Y-116912000D01*
X144100000Y-114212000D01*
X146600000Y-114212000D01*
X146600000Y-116912000D01*
X146600000Y-116912000D01*
G37*
G36*
X172114000Y-116912000D02*
G01*
X169614000Y-116912000D01*
X169614000Y-114212000D01*
X172114000Y-114212000D01*
X172114000Y-116912000D01*
X172114000Y-116912000D01*
G37*
G36*
X159357000Y-116912000D02*
G01*
X156857000Y-116912000D01*
X156857000Y-114212000D01*
X159357000Y-114212000D01*
X159357000Y-116912000D01*
X159357000Y-116912000D01*
G37*
G36*
X197628000Y-116912000D02*
G01*
X195128000Y-116912000D01*
X195128000Y-114212000D01*
X197628000Y-114212000D01*
X197628000Y-116912000D01*
X197628000Y-116912000D01*
G37*
G36*
X210385000Y-116912000D02*
G01*
X207885000Y-116912000D01*
X207885000Y-114212000D01*
X210385000Y-114212000D01*
X210385000Y-116912000D01*
X210385000Y-116912000D01*
G37*
G36*
X223142000Y-116912000D02*
G01*
X220642000Y-116912000D01*
X220642000Y-114212000D01*
X223142000Y-114212000D01*
X223142000Y-116912000D01*
X223142000Y-116912000D01*
G37*
G36*
X235899000Y-116912000D02*
G01*
X233399000Y-116912000D01*
X233399000Y-114212000D01*
X235899000Y-114212000D01*
X235899000Y-116912000D01*
X235899000Y-116912000D01*
G37*
G36*
X248656000Y-116912000D02*
G01*
X246156000Y-116912000D01*
X246156000Y-114212000D01*
X248656000Y-114212000D01*
X248656000Y-116912000D01*
X248656000Y-116912000D01*
G37*
G36*
X31787000Y-116912000D02*
G01*
X29287000Y-116912000D01*
X29287000Y-114212000D01*
X31787000Y-114212000D01*
X31787000Y-116912000D01*
X31787000Y-116912000D01*
G37*
G36*
X23330000Y-114832000D02*
G01*
X22030000Y-114832000D01*
X22030000Y-111892000D01*
X23330000Y-111892000D01*
X23330000Y-114832000D01*
X23330000Y-114832000D01*
G37*
G36*
X26230000Y-114832000D02*
G01*
X24930000Y-114832000D01*
X24930000Y-111892000D01*
X26230000Y-111892000D01*
X26230000Y-114832000D01*
X26230000Y-114832000D01*
G37*
G36*
X146600000Y-113812000D02*
G01*
X144100000Y-113812000D01*
X144100000Y-112012000D01*
X146600000Y-112012000D01*
X146600000Y-113812000D01*
X146600000Y-113812000D01*
G37*
G36*
X108329000Y-113812000D02*
G01*
X105829000Y-113812000D01*
X105829000Y-112012000D01*
X108329000Y-112012000D01*
X108329000Y-113812000D01*
X108329000Y-113812000D01*
G37*
G36*
X95572000Y-113812000D02*
G01*
X93072000Y-113812000D01*
X93072000Y-112012000D01*
X95572000Y-112012000D01*
X95572000Y-113812000D01*
X95572000Y-113812000D01*
G37*
G36*
X82815000Y-113812000D02*
G01*
X80315000Y-113812000D01*
X80315000Y-112012000D01*
X82815000Y-112012000D01*
X82815000Y-113812000D01*
X82815000Y-113812000D01*
G37*
G36*
X70058000Y-113812000D02*
G01*
X67558000Y-113812000D01*
X67558000Y-112012000D01*
X70058000Y-112012000D01*
X70058000Y-113812000D01*
X70058000Y-113812000D01*
G37*
G36*
X57301000Y-113812000D02*
G01*
X54801000Y-113812000D01*
X54801000Y-112012000D01*
X57301000Y-112012000D01*
X57301000Y-113812000D01*
X57301000Y-113812000D01*
G37*
G36*
X44544000Y-113812000D02*
G01*
X42044000Y-113812000D01*
X42044000Y-112012000D01*
X44544000Y-112012000D01*
X44544000Y-113812000D01*
X44544000Y-113812000D01*
G37*
G36*
X31787000Y-113812000D02*
G01*
X29287000Y-113812000D01*
X29287000Y-112012000D01*
X31787000Y-112012000D01*
X31787000Y-113812000D01*
X31787000Y-113812000D01*
G37*
G36*
X133843000Y-113812000D02*
G01*
X131343000Y-113812000D01*
X131343000Y-112012000D01*
X133843000Y-112012000D01*
X133843000Y-113812000D01*
X133843000Y-113812000D01*
G37*
G36*
X159357000Y-113812000D02*
G01*
X156857000Y-113812000D01*
X156857000Y-112012000D01*
X159357000Y-112012000D01*
X159357000Y-113812000D01*
X159357000Y-113812000D01*
G37*
G36*
X172114000Y-113812000D02*
G01*
X169614000Y-113812000D01*
X169614000Y-112012000D01*
X172114000Y-112012000D01*
X172114000Y-113812000D01*
X172114000Y-113812000D01*
G37*
G36*
X184871000Y-113812000D02*
G01*
X182371000Y-113812000D01*
X182371000Y-112012000D01*
X184871000Y-112012000D01*
X184871000Y-113812000D01*
X184871000Y-113812000D01*
G37*
G36*
X197628000Y-113812000D02*
G01*
X195128000Y-113812000D01*
X195128000Y-112012000D01*
X197628000Y-112012000D01*
X197628000Y-113812000D01*
X197628000Y-113812000D01*
G37*
G36*
X210385000Y-113812000D02*
G01*
X207885000Y-113812000D01*
X207885000Y-112012000D01*
X210385000Y-112012000D01*
X210385000Y-113812000D01*
X210385000Y-113812000D01*
G37*
G36*
X223142000Y-113812000D02*
G01*
X220642000Y-113812000D01*
X220642000Y-112012000D01*
X223142000Y-112012000D01*
X223142000Y-113812000D01*
X223142000Y-113812000D01*
G37*
G36*
X235899000Y-113812000D02*
G01*
X233399000Y-113812000D01*
X233399000Y-112012000D01*
X235899000Y-112012000D01*
X235899000Y-113812000D01*
X235899000Y-113812000D01*
G37*
G36*
X248656000Y-113812000D02*
G01*
X246156000Y-113812000D01*
X246156000Y-112012000D01*
X248656000Y-112012000D01*
X248656000Y-113812000D01*
X248656000Y-113812000D01*
G37*
G36*
X121086000Y-113812000D02*
G01*
X118586000Y-113812000D01*
X118586000Y-112012000D01*
X121086000Y-112012000D01*
X121086000Y-113812000D01*
X121086000Y-113812000D01*
G37*
G36*
X229650000Y-113310000D02*
G01*
X227550000Y-113310000D01*
X227550000Y-111210000D01*
X229650000Y-111210000D01*
X229650000Y-113310000D01*
X229650000Y-113310000D01*
G37*
G36*
X19030000Y-113062000D02*
G01*
X16530000Y-113062000D01*
X16530000Y-110362000D01*
X19030000Y-110362000D01*
X19030000Y-113062000D01*
X19030000Y-113062000D01*
G37*
G36*
X261410000Y-113062000D02*
G01*
X258910000Y-113062000D01*
X258910000Y-110362000D01*
X261410000Y-110362000D01*
X261410000Y-113062000D01*
X261410000Y-113062000D01*
G37*
G36*
X146600000Y-111138000D02*
G01*
X144100000Y-111138000D01*
X144100000Y-108438000D01*
X146600000Y-108438000D01*
X146600000Y-111138000D01*
X146600000Y-111138000D01*
G37*
G36*
X159357000Y-111138000D02*
G01*
X156857000Y-111138000D01*
X156857000Y-108438000D01*
X159357000Y-108438000D01*
X159357000Y-111138000D01*
X159357000Y-111138000D01*
G37*
G36*
X133843000Y-111138000D02*
G01*
X131343000Y-111138000D01*
X131343000Y-108438000D01*
X133843000Y-108438000D01*
X133843000Y-111138000D01*
X133843000Y-111138000D01*
G37*
G36*
X121086000Y-111138000D02*
G01*
X118586000Y-111138000D01*
X118586000Y-108438000D01*
X121086000Y-108438000D01*
X121086000Y-111138000D01*
X121086000Y-111138000D01*
G37*
G36*
X108329000Y-111138000D02*
G01*
X105829000Y-111138000D01*
X105829000Y-108438000D01*
X108329000Y-108438000D01*
X108329000Y-111138000D01*
X108329000Y-111138000D01*
G37*
G36*
X95572000Y-111138000D02*
G01*
X93072000Y-111138000D01*
X93072000Y-108438000D01*
X95572000Y-108438000D01*
X95572000Y-111138000D01*
X95572000Y-111138000D01*
G37*
G36*
X82815000Y-111138000D02*
G01*
X80315000Y-111138000D01*
X80315000Y-108438000D01*
X82815000Y-108438000D01*
X82815000Y-111138000D01*
X82815000Y-111138000D01*
G37*
G36*
X70058000Y-111138000D02*
G01*
X67558000Y-111138000D01*
X67558000Y-108438000D01*
X70058000Y-108438000D01*
X70058000Y-111138000D01*
X70058000Y-111138000D01*
G37*
G36*
X57301000Y-111138000D02*
G01*
X54801000Y-111138000D01*
X54801000Y-108438000D01*
X57301000Y-108438000D01*
X57301000Y-111138000D01*
X57301000Y-111138000D01*
G37*
G36*
X248656000Y-111138000D02*
G01*
X246156000Y-111138000D01*
X246156000Y-108438000D01*
X248656000Y-108438000D01*
X248656000Y-111138000D01*
X248656000Y-111138000D01*
G37*
G36*
X31787000Y-111138000D02*
G01*
X29287000Y-111138000D01*
X29287000Y-108438000D01*
X31787000Y-108438000D01*
X31787000Y-111138000D01*
X31787000Y-111138000D01*
G37*
G36*
X223142000Y-111138000D02*
G01*
X220642000Y-111138000D01*
X220642000Y-108438000D01*
X223142000Y-108438000D01*
X223142000Y-111138000D01*
X223142000Y-111138000D01*
G37*
G36*
X184871000Y-111138000D02*
G01*
X182371000Y-111138000D01*
X182371000Y-108438000D01*
X184871000Y-108438000D01*
X184871000Y-111138000D01*
X184871000Y-111138000D01*
G37*
G36*
X197628000Y-111138000D02*
G01*
X195128000Y-111138000D01*
X195128000Y-108438000D01*
X197628000Y-108438000D01*
X197628000Y-111138000D01*
X197628000Y-111138000D01*
G37*
G36*
X210385000Y-111138000D02*
G01*
X207885000Y-111138000D01*
X207885000Y-108438000D01*
X210385000Y-108438000D01*
X210385000Y-111138000D01*
X210385000Y-111138000D01*
G37*
G36*
X235899000Y-111138000D02*
G01*
X233399000Y-111138000D01*
X233399000Y-108438000D01*
X235899000Y-108438000D01*
X235899000Y-111138000D01*
X235899000Y-111138000D01*
G37*
G36*
X44544000Y-111138000D02*
G01*
X42044000Y-111138000D01*
X42044000Y-108438000D01*
X44544000Y-108438000D01*
X44544000Y-111138000D01*
X44544000Y-111138000D01*
G37*
G36*
X172114000Y-111138000D02*
G01*
X169614000Y-111138000D01*
X169614000Y-108438000D01*
X172114000Y-108438000D01*
X172114000Y-111138000D01*
X172114000Y-111138000D01*
G37*
G36*
X261410000Y-109962000D02*
G01*
X258910000Y-109962000D01*
X258910000Y-108162000D01*
X261410000Y-108162000D01*
X261410000Y-109962000D01*
X261410000Y-109962000D01*
G37*
G36*
X19030000Y-109962000D02*
G01*
X16530000Y-109962000D01*
X16530000Y-108162000D01*
X19030000Y-108162000D01*
X19030000Y-109962000D01*
X19030000Y-109962000D01*
G37*
G36*
X114080000Y-109688000D02*
G01*
X111980000Y-109688000D01*
X111980000Y-108388000D01*
X114080000Y-108388000D01*
X114080000Y-109688000D01*
X114080000Y-109688000D01*
G37*
G36*
X242350000Y-109688000D02*
G01*
X240250000Y-109688000D01*
X240250000Y-108388000D01*
X242350000Y-108388000D01*
X242350000Y-109688000D01*
X242350000Y-109688000D01*
G37*
G36*
X190280000Y-109688000D02*
G01*
X188180000Y-109688000D01*
X188180000Y-108388000D01*
X190280000Y-108388000D01*
X190280000Y-109688000D01*
X190280000Y-109688000D01*
G37*
G36*
X177760000Y-109688000D02*
G01*
X175660000Y-109688000D01*
X175660000Y-108388000D01*
X177760000Y-108388000D01*
X177760000Y-109688000D01*
X177760000Y-109688000D01*
G37*
G36*
X164880000Y-109688000D02*
G01*
X162780000Y-109688000D01*
X162780000Y-108388000D01*
X164880000Y-108388000D01*
X164880000Y-109688000D01*
X164880000Y-109688000D01*
G37*
G36*
X152180000Y-109688000D02*
G01*
X150080000Y-109688000D01*
X150080000Y-108388000D01*
X152180000Y-108388000D01*
X152180000Y-109688000D01*
X152180000Y-109688000D01*
G37*
G36*
X25180000Y-109688000D02*
G01*
X23080000Y-109688000D01*
X23080000Y-108388000D01*
X25180000Y-108388000D01*
X25180000Y-109688000D01*
X25180000Y-109688000D01*
G37*
G36*
X139480000Y-109688000D02*
G01*
X137380000Y-109688000D01*
X137380000Y-108388000D01*
X139480000Y-108388000D01*
X139480000Y-109688000D01*
X139480000Y-109688000D01*
G37*
G36*
X37880000Y-109688000D02*
G01*
X35780000Y-109688000D01*
X35780000Y-108388000D01*
X37880000Y-108388000D01*
X37880000Y-109688000D01*
X37880000Y-109688000D01*
G37*
G36*
X50580000Y-109688000D02*
G01*
X48480000Y-109688000D01*
X48480000Y-108388000D01*
X50580000Y-108388000D01*
X50580000Y-109688000D01*
X50580000Y-109688000D01*
G37*
G36*
X126780000Y-109688000D02*
G01*
X124680000Y-109688000D01*
X124680000Y-108388000D01*
X126780000Y-108388000D01*
X126780000Y-109688000D01*
X126780000Y-109688000D01*
G37*
G36*
X63280000Y-109688000D02*
G01*
X61180000Y-109688000D01*
X61180000Y-108388000D01*
X63280000Y-108388000D01*
X63280000Y-109688000D01*
X63280000Y-109688000D01*
G37*
G36*
X75980000Y-109688000D02*
G01*
X73880000Y-109688000D01*
X73880000Y-108388000D01*
X75980000Y-108388000D01*
X75980000Y-109688000D01*
X75980000Y-109688000D01*
G37*
G36*
X101380000Y-109688000D02*
G01*
X99280000Y-109688000D01*
X99280000Y-108388000D01*
X101380000Y-108388000D01*
X101380000Y-109688000D01*
X101380000Y-109688000D01*
G37*
G36*
X229650000Y-109688000D02*
G01*
X227550000Y-109688000D01*
X227550000Y-108388000D01*
X229650000Y-108388000D01*
X229650000Y-109688000D01*
X229650000Y-109688000D01*
G37*
G36*
X216950000Y-109688000D02*
G01*
X214850000Y-109688000D01*
X214850000Y-108388000D01*
X216950000Y-108388000D01*
X216950000Y-109688000D01*
X216950000Y-109688000D01*
G37*
G36*
X88680000Y-109688000D02*
G01*
X86580000Y-109688000D01*
X86580000Y-108388000D01*
X88680000Y-108388000D01*
X88680000Y-109688000D01*
X88680000Y-109688000D01*
G37*
G36*
X202980000Y-109688000D02*
G01*
X200880000Y-109688000D01*
X200880000Y-108388000D01*
X202980000Y-108388000D01*
X202980000Y-109688000D01*
X202980000Y-109688000D01*
G37*
G36*
X254830000Y-109000000D02*
G01*
X253530000Y-109000000D01*
X253530000Y-106900000D01*
X254830000Y-106900000D01*
X254830000Y-109000000D01*
X254830000Y-109000000D01*
G37*
G36*
X251930000Y-109000000D02*
G01*
X250630000Y-109000000D01*
X250630000Y-106900000D01*
X251930000Y-106900000D01*
X251930000Y-109000000D01*
X251930000Y-109000000D01*
G37*
G36*
X184871000Y-108038000D02*
G01*
X182371000Y-108038000D01*
X182371000Y-106238000D01*
X184871000Y-106238000D01*
X184871000Y-108038000D01*
X184871000Y-108038000D01*
G37*
G36*
X248656000Y-108038000D02*
G01*
X246156000Y-108038000D01*
X246156000Y-106238000D01*
X248656000Y-106238000D01*
X248656000Y-108038000D01*
X248656000Y-108038000D01*
G37*
G36*
X235899000Y-108038000D02*
G01*
X233399000Y-108038000D01*
X233399000Y-106238000D01*
X235899000Y-106238000D01*
X235899000Y-108038000D01*
X235899000Y-108038000D01*
G37*
G36*
X223142000Y-108038000D02*
G01*
X220642000Y-108038000D01*
X220642000Y-106238000D01*
X223142000Y-106238000D01*
X223142000Y-108038000D01*
X223142000Y-108038000D01*
G37*
G36*
X197628000Y-108038000D02*
G01*
X195128000Y-108038000D01*
X195128000Y-106238000D01*
X197628000Y-106238000D01*
X197628000Y-108038000D01*
X197628000Y-108038000D01*
G37*
G36*
X210385000Y-108038000D02*
G01*
X207885000Y-108038000D01*
X207885000Y-106238000D01*
X210385000Y-106238000D01*
X210385000Y-108038000D01*
X210385000Y-108038000D01*
G37*
G36*
X31787000Y-108038000D02*
G01*
X29287000Y-108038000D01*
X29287000Y-106238000D01*
X31787000Y-106238000D01*
X31787000Y-108038000D01*
X31787000Y-108038000D01*
G37*
G36*
X44544000Y-108038000D02*
G01*
X42044000Y-108038000D01*
X42044000Y-106238000D01*
X44544000Y-106238000D01*
X44544000Y-108038000D01*
X44544000Y-108038000D01*
G37*
G36*
X57301000Y-108038000D02*
G01*
X54801000Y-108038000D01*
X54801000Y-106238000D01*
X57301000Y-106238000D01*
X57301000Y-108038000D01*
X57301000Y-108038000D01*
G37*
G36*
X82815000Y-108038000D02*
G01*
X80315000Y-108038000D01*
X80315000Y-106238000D01*
X82815000Y-106238000D01*
X82815000Y-108038000D01*
X82815000Y-108038000D01*
G37*
G36*
X95572000Y-108038000D02*
G01*
X93072000Y-108038000D01*
X93072000Y-106238000D01*
X95572000Y-106238000D01*
X95572000Y-108038000D01*
X95572000Y-108038000D01*
G37*
G36*
X121086000Y-108038000D02*
G01*
X118586000Y-108038000D01*
X118586000Y-106238000D01*
X121086000Y-106238000D01*
X121086000Y-108038000D01*
X121086000Y-108038000D01*
G37*
G36*
X133843000Y-108038000D02*
G01*
X131343000Y-108038000D01*
X131343000Y-106238000D01*
X133843000Y-106238000D01*
X133843000Y-108038000D01*
X133843000Y-108038000D01*
G37*
G36*
X146600000Y-108038000D02*
G01*
X144100000Y-108038000D01*
X144100000Y-106238000D01*
X146600000Y-106238000D01*
X146600000Y-108038000D01*
X146600000Y-108038000D01*
G37*
G36*
X159357000Y-108038000D02*
G01*
X156857000Y-108038000D01*
X156857000Y-106238000D01*
X159357000Y-106238000D01*
X159357000Y-108038000D01*
X159357000Y-108038000D01*
G37*
G36*
X172114000Y-108038000D02*
G01*
X169614000Y-108038000D01*
X169614000Y-106238000D01*
X172114000Y-106238000D01*
X172114000Y-108038000D01*
X172114000Y-108038000D01*
G37*
G36*
X108329000Y-108038000D02*
G01*
X105829000Y-108038000D01*
X105829000Y-106238000D01*
X108329000Y-106238000D01*
X108329000Y-108038000D01*
X108329000Y-108038000D01*
G37*
G36*
X70058000Y-108038000D02*
G01*
X67558000Y-108038000D01*
X67558000Y-106238000D01*
X70058000Y-106238000D01*
X70058000Y-108038000D01*
X70058000Y-108038000D01*
G37*
G36*
X50580000Y-106788000D02*
G01*
X48480000Y-106788000D01*
X48480000Y-105488000D01*
X50580000Y-105488000D01*
X50580000Y-106788000D01*
X50580000Y-106788000D01*
G37*
G36*
X139480000Y-106788000D02*
G01*
X137380000Y-106788000D01*
X137380000Y-105488000D01*
X139480000Y-105488000D01*
X139480000Y-106788000D01*
X139480000Y-106788000D01*
G37*
G36*
X190280000Y-106788000D02*
G01*
X188180000Y-106788000D01*
X188180000Y-105488000D01*
X190280000Y-105488000D01*
X190280000Y-106788000D01*
X190280000Y-106788000D01*
G37*
G36*
X37880000Y-106788000D02*
G01*
X35780000Y-106788000D01*
X35780000Y-105488000D01*
X37880000Y-105488000D01*
X37880000Y-106788000D01*
X37880000Y-106788000D01*
G37*
G36*
X177760000Y-106788000D02*
G01*
X175660000Y-106788000D01*
X175660000Y-105488000D01*
X177760000Y-105488000D01*
X177760000Y-106788000D01*
X177760000Y-106788000D01*
G37*
G36*
X152180000Y-106788000D02*
G01*
X150080000Y-106788000D01*
X150080000Y-105488000D01*
X152180000Y-105488000D01*
X152180000Y-106788000D01*
X152180000Y-106788000D01*
G37*
G36*
X25180000Y-106788000D02*
G01*
X23080000Y-106788000D01*
X23080000Y-105488000D01*
X25180000Y-105488000D01*
X25180000Y-106788000D01*
X25180000Y-106788000D01*
G37*
G36*
X164880000Y-106788000D02*
G01*
X162780000Y-106788000D01*
X162780000Y-105488000D01*
X164880000Y-105488000D01*
X164880000Y-106788000D01*
X164880000Y-106788000D01*
G37*
G36*
X101380000Y-106788000D02*
G01*
X99280000Y-106788000D01*
X99280000Y-105488000D01*
X101380000Y-105488000D01*
X101380000Y-106788000D01*
X101380000Y-106788000D01*
G37*
G36*
X216950000Y-106788000D02*
G01*
X214850000Y-106788000D01*
X214850000Y-105488000D01*
X216950000Y-105488000D01*
X216950000Y-106788000D01*
X216950000Y-106788000D01*
G37*
G36*
X202980000Y-106788000D02*
G01*
X200880000Y-106788000D01*
X200880000Y-105488000D01*
X202980000Y-105488000D01*
X202980000Y-106788000D01*
X202980000Y-106788000D01*
G37*
G36*
X114080000Y-106788000D02*
G01*
X111980000Y-106788000D01*
X111980000Y-105488000D01*
X114080000Y-105488000D01*
X114080000Y-106788000D01*
X114080000Y-106788000D01*
G37*
G36*
X242350000Y-106788000D02*
G01*
X240250000Y-106788000D01*
X240250000Y-105488000D01*
X242350000Y-105488000D01*
X242350000Y-106788000D01*
X242350000Y-106788000D01*
G37*
G36*
X75980000Y-106788000D02*
G01*
X73880000Y-106788000D01*
X73880000Y-105488000D01*
X75980000Y-105488000D01*
X75980000Y-106788000D01*
X75980000Y-106788000D01*
G37*
G36*
X126780000Y-106788000D02*
G01*
X124680000Y-106788000D01*
X124680000Y-105488000D01*
X126780000Y-105488000D01*
X126780000Y-106788000D01*
X126780000Y-106788000D01*
G37*
G36*
X229650000Y-106788000D02*
G01*
X227550000Y-106788000D01*
X227550000Y-105488000D01*
X229650000Y-105488000D01*
X229650000Y-106788000D01*
X229650000Y-106788000D01*
G37*
G36*
X88680000Y-106788000D02*
G01*
X86580000Y-106788000D01*
X86580000Y-105488000D01*
X88680000Y-105488000D01*
X88680000Y-106788000D01*
X88680000Y-106788000D01*
G37*
G36*
X63280000Y-106788000D02*
G01*
X61180000Y-106788000D01*
X61180000Y-105488000D01*
X63280000Y-105488000D01*
X63280000Y-106788000D01*
X63280000Y-106788000D01*
G37*
G36*
X146600000Y-105362000D02*
G01*
X144100000Y-105362000D01*
X144100000Y-102662000D01*
X146600000Y-102662000D01*
X146600000Y-105362000D01*
X146600000Y-105362000D01*
G37*
G36*
X159357000Y-105362000D02*
G01*
X156857000Y-105362000D01*
X156857000Y-102662000D01*
X159357000Y-102662000D01*
X159357000Y-105362000D01*
X159357000Y-105362000D01*
G37*
G36*
X172114000Y-105362000D02*
G01*
X169614000Y-105362000D01*
X169614000Y-102662000D01*
X172114000Y-102662000D01*
X172114000Y-105362000D01*
X172114000Y-105362000D01*
G37*
G36*
X184871000Y-105362000D02*
G01*
X182371000Y-105362000D01*
X182371000Y-102662000D01*
X184871000Y-102662000D01*
X184871000Y-105362000D01*
X184871000Y-105362000D01*
G37*
G36*
X197628000Y-105362000D02*
G01*
X195128000Y-105362000D01*
X195128000Y-102662000D01*
X197628000Y-102662000D01*
X197628000Y-105362000D01*
X197628000Y-105362000D01*
G37*
G36*
X210385000Y-105362000D02*
G01*
X207885000Y-105362000D01*
X207885000Y-102662000D01*
X210385000Y-102662000D01*
X210385000Y-105362000D01*
X210385000Y-105362000D01*
G37*
G36*
X223142000Y-105362000D02*
G01*
X220642000Y-105362000D01*
X220642000Y-102662000D01*
X223142000Y-102662000D01*
X223142000Y-105362000D01*
X223142000Y-105362000D01*
G37*
G36*
X235899000Y-105362000D02*
G01*
X233399000Y-105362000D01*
X233399000Y-102662000D01*
X235899000Y-102662000D01*
X235899000Y-105362000D01*
X235899000Y-105362000D01*
G37*
G36*
X248656000Y-105362000D02*
G01*
X246156000Y-105362000D01*
X246156000Y-102662000D01*
X248656000Y-102662000D01*
X248656000Y-105362000D01*
X248656000Y-105362000D01*
G37*
G36*
X44544000Y-105362000D02*
G01*
X42044000Y-105362000D01*
X42044000Y-102662000D01*
X44544000Y-102662000D01*
X44544000Y-105362000D01*
X44544000Y-105362000D01*
G37*
G36*
X57301000Y-105362000D02*
G01*
X54801000Y-105362000D01*
X54801000Y-102662000D01*
X57301000Y-102662000D01*
X57301000Y-105362000D01*
X57301000Y-105362000D01*
G37*
G36*
X70058000Y-105362000D02*
G01*
X67558000Y-105362000D01*
X67558000Y-102662000D01*
X70058000Y-102662000D01*
X70058000Y-105362000D01*
X70058000Y-105362000D01*
G37*
G36*
X82815000Y-105362000D02*
G01*
X80315000Y-105362000D01*
X80315000Y-102662000D01*
X82815000Y-102662000D01*
X82815000Y-105362000D01*
X82815000Y-105362000D01*
G37*
G36*
X95572000Y-105362000D02*
G01*
X93072000Y-105362000D01*
X93072000Y-102662000D01*
X95572000Y-102662000D01*
X95572000Y-105362000D01*
X95572000Y-105362000D01*
G37*
G36*
X108329000Y-105362000D02*
G01*
X105829000Y-105362000D01*
X105829000Y-102662000D01*
X108329000Y-102662000D01*
X108329000Y-105362000D01*
X108329000Y-105362000D01*
G37*
G36*
X121086000Y-105362000D02*
G01*
X118586000Y-105362000D01*
X118586000Y-102662000D01*
X121086000Y-102662000D01*
X121086000Y-105362000D01*
X121086000Y-105362000D01*
G37*
G36*
X31787000Y-105362000D02*
G01*
X29287000Y-105362000D01*
X29287000Y-102662000D01*
X31787000Y-102662000D01*
X31787000Y-105362000D01*
X31787000Y-105362000D01*
G37*
G36*
X133843000Y-105362000D02*
G01*
X131343000Y-105362000D01*
X131343000Y-102662000D01*
X133843000Y-102662000D01*
X133843000Y-105362000D01*
X133843000Y-105362000D01*
G37*
G36*
X229650000Y-103920000D02*
G01*
X227550000Y-103920000D01*
X227550000Y-101820000D01*
X229650000Y-101820000D01*
X229650000Y-103920000D01*
X229650000Y-103920000D01*
G37*
G36*
X216950000Y-103920000D02*
G01*
X214850000Y-103920000D01*
X214850000Y-101820000D01*
X216950000Y-101820000D01*
X216950000Y-103920000D01*
X216950000Y-103920000D01*
G37*
G36*
X19030000Y-103438000D02*
G01*
X16530000Y-103438000D01*
X16530000Y-100738000D01*
X19030000Y-100738000D01*
X19030000Y-103438000D01*
X19030000Y-103438000D01*
G37*
G36*
X261410000Y-103438000D02*
G01*
X258910000Y-103438000D01*
X258910000Y-100738000D01*
X261410000Y-100738000D01*
X261410000Y-103438000D01*
X261410000Y-103438000D01*
G37*
G36*
X146600000Y-102262000D02*
G01*
X144100000Y-102262000D01*
X144100000Y-100462000D01*
X146600000Y-100462000D01*
X146600000Y-102262000D01*
X146600000Y-102262000D01*
G37*
G36*
X95572000Y-102262000D02*
G01*
X93072000Y-102262000D01*
X93072000Y-100462000D01*
X95572000Y-100462000D01*
X95572000Y-102262000D01*
X95572000Y-102262000D01*
G37*
G36*
X82815000Y-102262000D02*
G01*
X80315000Y-102262000D01*
X80315000Y-100462000D01*
X82815000Y-100462000D01*
X82815000Y-102262000D01*
X82815000Y-102262000D01*
G37*
G36*
X70058000Y-102262000D02*
G01*
X67558000Y-102262000D01*
X67558000Y-100462000D01*
X70058000Y-100462000D01*
X70058000Y-102262000D01*
X70058000Y-102262000D01*
G37*
G36*
X57301000Y-102262000D02*
G01*
X54801000Y-102262000D01*
X54801000Y-100462000D01*
X57301000Y-100462000D01*
X57301000Y-102262000D01*
X57301000Y-102262000D01*
G37*
G36*
X44544000Y-102262000D02*
G01*
X42044000Y-102262000D01*
X42044000Y-100462000D01*
X44544000Y-100462000D01*
X44544000Y-102262000D01*
X44544000Y-102262000D01*
G37*
G36*
X31787000Y-102262000D02*
G01*
X29287000Y-102262000D01*
X29287000Y-100462000D01*
X31787000Y-100462000D01*
X31787000Y-102262000D01*
X31787000Y-102262000D01*
G37*
G36*
X108329000Y-102262000D02*
G01*
X105829000Y-102262000D01*
X105829000Y-100462000D01*
X108329000Y-100462000D01*
X108329000Y-102262000D01*
X108329000Y-102262000D01*
G37*
G36*
X121086000Y-102262000D02*
G01*
X118586000Y-102262000D01*
X118586000Y-100462000D01*
X121086000Y-100462000D01*
X121086000Y-102262000D01*
X121086000Y-102262000D01*
G37*
G36*
X133843000Y-102262000D02*
G01*
X131343000Y-102262000D01*
X131343000Y-100462000D01*
X133843000Y-100462000D01*
X133843000Y-102262000D01*
X133843000Y-102262000D01*
G37*
G36*
X159357000Y-102262000D02*
G01*
X156857000Y-102262000D01*
X156857000Y-100462000D01*
X159357000Y-100462000D01*
X159357000Y-102262000D01*
X159357000Y-102262000D01*
G37*
G36*
X172114000Y-102262000D02*
G01*
X169614000Y-102262000D01*
X169614000Y-100462000D01*
X172114000Y-100462000D01*
X172114000Y-102262000D01*
X172114000Y-102262000D01*
G37*
G36*
X184871000Y-102262000D02*
G01*
X182371000Y-102262000D01*
X182371000Y-100462000D01*
X184871000Y-100462000D01*
X184871000Y-102262000D01*
X184871000Y-102262000D01*
G37*
G36*
X210385000Y-102262000D02*
G01*
X207885000Y-102262000D01*
X207885000Y-100462000D01*
X210385000Y-100462000D01*
X210385000Y-102262000D01*
X210385000Y-102262000D01*
G37*
G36*
X197628000Y-102262000D02*
G01*
X195128000Y-102262000D01*
X195128000Y-100462000D01*
X197628000Y-100462000D01*
X197628000Y-102262000D01*
X197628000Y-102262000D01*
G37*
G36*
X248656000Y-102262000D02*
G01*
X246156000Y-102262000D01*
X246156000Y-100462000D01*
X248656000Y-100462000D01*
X248656000Y-102262000D01*
X248656000Y-102262000D01*
G37*
G36*
X235899000Y-102262000D02*
G01*
X233399000Y-102262000D01*
X233399000Y-100462000D01*
X235899000Y-100462000D01*
X235899000Y-102262000D01*
X235899000Y-102262000D01*
G37*
G36*
X223142000Y-102262000D02*
G01*
X220642000Y-102262000D01*
X220642000Y-100462000D01*
X223142000Y-100462000D01*
X223142000Y-102262000D01*
X223142000Y-102262000D01*
G37*
G36*
X261410000Y-100338000D02*
G01*
X258910000Y-100338000D01*
X258910000Y-98538000D01*
X261410000Y-98538000D01*
X261410000Y-100338000D01*
X261410000Y-100338000D01*
G37*
G36*
X19030000Y-100338000D02*
G01*
X16530000Y-100338000D01*
X16530000Y-98538000D01*
X19030000Y-98538000D01*
X19030000Y-100338000D01*
X19030000Y-100338000D01*
G37*
G36*
X229650000Y-100110000D02*
G01*
X227550000Y-100110000D01*
X227550000Y-98010000D01*
X229650000Y-98010000D01*
X229650000Y-100110000D01*
X229650000Y-100110000D01*
G37*
G36*
X172114000Y-99587500D02*
G01*
X169614000Y-99587500D01*
X169614000Y-96887500D01*
X172114000Y-96887500D01*
X172114000Y-99587500D01*
X172114000Y-99587500D01*
G37*
G36*
X184871000Y-99587500D02*
G01*
X182371000Y-99587500D01*
X182371000Y-96887500D01*
X184871000Y-96887500D01*
X184871000Y-99587500D01*
X184871000Y-99587500D01*
G37*
G36*
X31787000Y-99587500D02*
G01*
X29287000Y-99587500D01*
X29287000Y-96887500D01*
X31787000Y-96887500D01*
X31787000Y-99587500D01*
X31787000Y-99587500D01*
G37*
G36*
X44544000Y-99587500D02*
G01*
X42044000Y-99587500D01*
X42044000Y-96887500D01*
X44544000Y-96887500D01*
X44544000Y-99587500D01*
X44544000Y-99587500D01*
G37*
G36*
X121086000Y-99587500D02*
G01*
X118586000Y-99587500D01*
X118586000Y-96887500D01*
X121086000Y-96887500D01*
X121086000Y-99587500D01*
X121086000Y-99587500D01*
G37*
G36*
X108329000Y-99587500D02*
G01*
X105829000Y-99587500D01*
X105829000Y-96887500D01*
X108329000Y-96887500D01*
X108329000Y-99587500D01*
X108329000Y-99587500D01*
G37*
G36*
X95572000Y-99587500D02*
G01*
X93072000Y-99587500D01*
X93072000Y-96887500D01*
X95572000Y-96887500D01*
X95572000Y-99587500D01*
X95572000Y-99587500D01*
G37*
G36*
X210385000Y-99587500D02*
G01*
X207885000Y-99587500D01*
X207885000Y-96887500D01*
X210385000Y-96887500D01*
X210385000Y-99587500D01*
X210385000Y-99587500D01*
G37*
G36*
X197628000Y-99587500D02*
G01*
X195128000Y-99587500D01*
X195128000Y-96887500D01*
X197628000Y-96887500D01*
X197628000Y-99587500D01*
X197628000Y-99587500D01*
G37*
G36*
X82815000Y-99587500D02*
G01*
X80315000Y-99587500D01*
X80315000Y-96887500D01*
X82815000Y-96887500D01*
X82815000Y-99587500D01*
X82815000Y-99587500D01*
G37*
G36*
X57301000Y-99587500D02*
G01*
X54801000Y-99587500D01*
X54801000Y-96887500D01*
X57301000Y-96887500D01*
X57301000Y-99587500D01*
X57301000Y-99587500D01*
G37*
G36*
X223142000Y-99587500D02*
G01*
X220642000Y-99587500D01*
X220642000Y-96887500D01*
X223142000Y-96887500D01*
X223142000Y-99587500D01*
X223142000Y-99587500D01*
G37*
G36*
X248656000Y-99587500D02*
G01*
X246156000Y-99587500D01*
X246156000Y-96887500D01*
X248656000Y-96887500D01*
X248656000Y-99587500D01*
X248656000Y-99587500D01*
G37*
G36*
X146600000Y-99587500D02*
G01*
X144100000Y-99587500D01*
X144100000Y-96887500D01*
X146600000Y-96887500D01*
X146600000Y-99587500D01*
X146600000Y-99587500D01*
G37*
G36*
X159357000Y-99587500D02*
G01*
X156857000Y-99587500D01*
X156857000Y-96887500D01*
X159357000Y-96887500D01*
X159357000Y-99587500D01*
X159357000Y-99587500D01*
G37*
G36*
X235899000Y-99587500D02*
G01*
X233399000Y-99587500D01*
X233399000Y-96887500D01*
X235899000Y-96887500D01*
X235899000Y-99587500D01*
X235899000Y-99587500D01*
G37*
G36*
X70058000Y-99587500D02*
G01*
X67558000Y-99587500D01*
X67558000Y-96887500D01*
X70058000Y-96887500D01*
X70058000Y-99587500D01*
X70058000Y-99587500D01*
G37*
G36*
X133843000Y-99587500D02*
G01*
X131343000Y-99587500D01*
X131343000Y-96887500D01*
X133843000Y-96887500D01*
X133843000Y-99587500D01*
X133843000Y-99587500D01*
G37*
G36*
X26230000Y-97507500D02*
G01*
X24930000Y-97507500D01*
X24930000Y-94567500D01*
X26230000Y-94567500D01*
X26230000Y-97507500D01*
X26230000Y-97507500D01*
G37*
G36*
X23330000Y-97507500D02*
G01*
X22030000Y-97507500D01*
X22030000Y-94567500D01*
X23330000Y-94567500D01*
X23330000Y-97507500D01*
X23330000Y-97507500D01*
G37*
G36*
X235899000Y-96487500D02*
G01*
X233399000Y-96487500D01*
X233399000Y-94687500D01*
X235899000Y-94687500D01*
X235899000Y-96487500D01*
X235899000Y-96487500D01*
G37*
G36*
X57301000Y-96487500D02*
G01*
X54801000Y-96487500D01*
X54801000Y-94687500D01*
X57301000Y-94687500D01*
X57301000Y-96487500D01*
X57301000Y-96487500D01*
G37*
G36*
X70058000Y-96487500D02*
G01*
X67558000Y-96487500D01*
X67558000Y-94687500D01*
X70058000Y-94687500D01*
X70058000Y-96487500D01*
X70058000Y-96487500D01*
G37*
G36*
X223142000Y-96487500D02*
G01*
X220642000Y-96487500D01*
X220642000Y-94687500D01*
X223142000Y-94687500D01*
X223142000Y-96487500D01*
X223142000Y-96487500D01*
G37*
G36*
X82815000Y-96487500D02*
G01*
X80315000Y-96487500D01*
X80315000Y-94687500D01*
X82815000Y-94687500D01*
X82815000Y-96487500D01*
X82815000Y-96487500D01*
G37*
G36*
X133843000Y-96487500D02*
G01*
X131343000Y-96487500D01*
X131343000Y-94687500D01*
X133843000Y-94687500D01*
X133843000Y-96487500D01*
X133843000Y-96487500D01*
G37*
G36*
X95572000Y-96487500D02*
G01*
X93072000Y-96487500D01*
X93072000Y-94687500D01*
X95572000Y-94687500D01*
X95572000Y-96487500D01*
X95572000Y-96487500D01*
G37*
G36*
X108329000Y-96487500D02*
G01*
X105829000Y-96487500D01*
X105829000Y-94687500D01*
X108329000Y-94687500D01*
X108329000Y-96487500D01*
X108329000Y-96487500D01*
G37*
G36*
X248656000Y-96487500D02*
G01*
X246156000Y-96487500D01*
X246156000Y-94687500D01*
X248656000Y-94687500D01*
X248656000Y-96487500D01*
X248656000Y-96487500D01*
G37*
G36*
X121086000Y-96487500D02*
G01*
X118586000Y-96487500D01*
X118586000Y-94687500D01*
X121086000Y-94687500D01*
X121086000Y-96487500D01*
X121086000Y-96487500D01*
G37*
G36*
X184871000Y-96487500D02*
G01*
X182371000Y-96487500D01*
X182371000Y-94687500D01*
X184871000Y-94687500D01*
X184871000Y-96487500D01*
X184871000Y-96487500D01*
G37*
G36*
X172114000Y-96487500D02*
G01*
X169614000Y-96487500D01*
X169614000Y-94687500D01*
X172114000Y-94687500D01*
X172114000Y-96487500D01*
X172114000Y-96487500D01*
G37*
G36*
X159357000Y-96487500D02*
G01*
X156857000Y-96487500D01*
X156857000Y-94687500D01*
X159357000Y-94687500D01*
X159357000Y-96487500D01*
X159357000Y-96487500D01*
G37*
G36*
X146600000Y-96487500D02*
G01*
X144100000Y-96487500D01*
X144100000Y-94687500D01*
X146600000Y-94687500D01*
X146600000Y-96487500D01*
X146600000Y-96487500D01*
G37*
G36*
X31787000Y-96487500D02*
G01*
X29287000Y-96487500D01*
X29287000Y-94687500D01*
X31787000Y-94687500D01*
X31787000Y-96487500D01*
X31787000Y-96487500D01*
G37*
G36*
X44544000Y-96487500D02*
G01*
X42044000Y-96487500D01*
X42044000Y-94687500D01*
X44544000Y-94687500D01*
X44544000Y-96487500D01*
X44544000Y-96487500D01*
G37*
G36*
X210385000Y-96487500D02*
G01*
X207885000Y-96487500D01*
X207885000Y-94687500D01*
X210385000Y-94687500D01*
X210385000Y-96487500D01*
X210385000Y-96487500D01*
G37*
G36*
X197628000Y-96487500D02*
G01*
X195128000Y-96487500D01*
X195128000Y-94687500D01*
X197628000Y-94687500D01*
X197628000Y-96487500D01*
X197628000Y-96487500D01*
G37*
G36*
X242350000Y-96300000D02*
G01*
X240250000Y-96300000D01*
X240250000Y-94200000D01*
X242350000Y-94200000D01*
X242350000Y-96300000D01*
X242350000Y-96300000D01*
G37*
G36*
X229650000Y-96300000D02*
G01*
X227550000Y-96300000D01*
X227550000Y-94200000D01*
X229650000Y-94200000D01*
X229650000Y-96300000D01*
X229650000Y-96300000D01*
G37*
G36*
X216950000Y-96000000D02*
G01*
X214850000Y-96000000D01*
X214850000Y-93900000D01*
X216950000Y-93900000D01*
X216950000Y-96000000D01*
X216950000Y-96000000D01*
G37*
G36*
X19030000Y-93812500D02*
G01*
X16530000Y-93812500D01*
X16530000Y-91112500D01*
X19030000Y-91112500D01*
X19030000Y-93812500D01*
X19030000Y-93812500D01*
G37*
G36*
X31787000Y-93812500D02*
G01*
X29287000Y-93812500D01*
X29287000Y-91112500D01*
X31787000Y-91112500D01*
X31787000Y-93812500D01*
X31787000Y-93812500D01*
G37*
G36*
X44544000Y-93812500D02*
G01*
X42044000Y-93812500D01*
X42044000Y-91112500D01*
X44544000Y-91112500D01*
X44544000Y-93812500D01*
X44544000Y-93812500D01*
G37*
G36*
X57301000Y-93812500D02*
G01*
X54801000Y-93812500D01*
X54801000Y-91112500D01*
X57301000Y-91112500D01*
X57301000Y-93812500D01*
X57301000Y-93812500D01*
G37*
G36*
X82815000Y-93812500D02*
G01*
X80315000Y-93812500D01*
X80315000Y-91112500D01*
X82815000Y-91112500D01*
X82815000Y-93812500D01*
X82815000Y-93812500D01*
G37*
G36*
X95572000Y-93812500D02*
G01*
X93072000Y-93812500D01*
X93072000Y-91112500D01*
X95572000Y-91112500D01*
X95572000Y-93812500D01*
X95572000Y-93812500D01*
G37*
G36*
X108329000Y-93812500D02*
G01*
X105829000Y-93812500D01*
X105829000Y-91112500D01*
X108329000Y-91112500D01*
X108329000Y-93812500D01*
X108329000Y-93812500D01*
G37*
G36*
X121086000Y-93812500D02*
G01*
X118586000Y-93812500D01*
X118586000Y-91112500D01*
X121086000Y-91112500D01*
X121086000Y-93812500D01*
X121086000Y-93812500D01*
G37*
G36*
X133843000Y-93812500D02*
G01*
X131343000Y-93812500D01*
X131343000Y-91112500D01*
X133843000Y-91112500D01*
X133843000Y-93812500D01*
X133843000Y-93812500D01*
G37*
G36*
X146600000Y-93812500D02*
G01*
X144100000Y-93812500D01*
X144100000Y-91112500D01*
X146600000Y-91112500D01*
X146600000Y-93812500D01*
X146600000Y-93812500D01*
G37*
G36*
X172114000Y-93812500D02*
G01*
X169614000Y-93812500D01*
X169614000Y-91112500D01*
X172114000Y-91112500D01*
X172114000Y-93812500D01*
X172114000Y-93812500D01*
G37*
G36*
X159357000Y-93812500D02*
G01*
X156857000Y-93812500D01*
X156857000Y-91112500D01*
X159357000Y-91112500D01*
X159357000Y-93812500D01*
X159357000Y-93812500D01*
G37*
G36*
X261410000Y-93812500D02*
G01*
X258910000Y-93812500D01*
X258910000Y-91112500D01*
X261410000Y-91112500D01*
X261410000Y-93812500D01*
X261410000Y-93812500D01*
G37*
G36*
X248656000Y-93812500D02*
G01*
X246156000Y-93812500D01*
X246156000Y-91112500D01*
X248656000Y-91112500D01*
X248656000Y-93812500D01*
X248656000Y-93812500D01*
G37*
G36*
X235899000Y-93812500D02*
G01*
X233399000Y-93812500D01*
X233399000Y-91112500D01*
X235899000Y-91112500D01*
X235899000Y-93812500D01*
X235899000Y-93812500D01*
G37*
G36*
X223142000Y-93812500D02*
G01*
X220642000Y-93812500D01*
X220642000Y-91112500D01*
X223142000Y-91112500D01*
X223142000Y-93812500D01*
X223142000Y-93812500D01*
G37*
G36*
X197628000Y-93812500D02*
G01*
X195128000Y-93812500D01*
X195128000Y-91112500D01*
X197628000Y-91112500D01*
X197628000Y-93812500D01*
X197628000Y-93812500D01*
G37*
G36*
X70058000Y-93812500D02*
G01*
X67558000Y-93812500D01*
X67558000Y-91112500D01*
X70058000Y-91112500D01*
X70058000Y-93812500D01*
X70058000Y-93812500D01*
G37*
G36*
X184871000Y-93812500D02*
G01*
X182371000Y-93812500D01*
X182371000Y-91112500D01*
X184871000Y-91112500D01*
X184871000Y-93812500D01*
X184871000Y-93812500D01*
G37*
G36*
X210385000Y-93812500D02*
G01*
X207885000Y-93812500D01*
X207885000Y-91112500D01*
X210385000Y-91112500D01*
X210385000Y-93812500D01*
X210385000Y-93812500D01*
G37*
G36*
X190280000Y-92362500D02*
G01*
X188180000Y-92362500D01*
X188180000Y-91062500D01*
X190280000Y-91062500D01*
X190280000Y-92362500D01*
X190280000Y-92362500D01*
G37*
G36*
X242350000Y-92362500D02*
G01*
X240250000Y-92362500D01*
X240250000Y-91062500D01*
X242350000Y-91062500D01*
X242350000Y-92362500D01*
X242350000Y-92362500D01*
G37*
G36*
X229650000Y-92362500D02*
G01*
X227550000Y-92362500D01*
X227550000Y-91062500D01*
X229650000Y-91062500D01*
X229650000Y-92362500D01*
X229650000Y-92362500D01*
G37*
G36*
X216950000Y-92362500D02*
G01*
X214850000Y-92362500D01*
X214850000Y-91062500D01*
X216950000Y-91062500D01*
X216950000Y-92362500D01*
X216950000Y-92362500D01*
G37*
G36*
X204250000Y-92362500D02*
G01*
X202150000Y-92362500D01*
X202150000Y-91062500D01*
X204250000Y-91062500D01*
X204250000Y-92362500D01*
X204250000Y-92362500D01*
G37*
G36*
X177580000Y-92362500D02*
G01*
X175480000Y-92362500D01*
X175480000Y-91062500D01*
X177580000Y-91062500D01*
X177580000Y-92362500D01*
X177580000Y-92362500D01*
G37*
G36*
X164880000Y-92362500D02*
G01*
X162780000Y-92362500D01*
X162780000Y-91062500D01*
X164880000Y-91062500D01*
X164880000Y-92362500D01*
X164880000Y-92362500D01*
G37*
G36*
X152180000Y-92362500D02*
G01*
X150080000Y-92362500D01*
X150080000Y-91062500D01*
X152180000Y-91062500D01*
X152180000Y-92362500D01*
X152180000Y-92362500D01*
G37*
G36*
X139480000Y-92362500D02*
G01*
X137380000Y-92362500D01*
X137380000Y-91062500D01*
X139480000Y-91062500D01*
X139480000Y-92362500D01*
X139480000Y-92362500D01*
G37*
G36*
X37880000Y-92362500D02*
G01*
X35780000Y-92362500D01*
X35780000Y-91062500D01*
X37880000Y-91062500D01*
X37880000Y-92362500D01*
X37880000Y-92362500D01*
G37*
G36*
X50580000Y-92362500D02*
G01*
X48480000Y-92362500D01*
X48480000Y-91062500D01*
X50580000Y-91062500D01*
X50580000Y-92362500D01*
X50580000Y-92362500D01*
G37*
G36*
X63280000Y-92362500D02*
G01*
X61180000Y-92362500D01*
X61180000Y-91062500D01*
X63280000Y-91062500D01*
X63280000Y-92362500D01*
X63280000Y-92362500D01*
G37*
G36*
X126780000Y-92362500D02*
G01*
X124680000Y-92362500D01*
X124680000Y-91062500D01*
X126780000Y-91062500D01*
X126780000Y-92362500D01*
X126780000Y-92362500D01*
G37*
G36*
X75980000Y-92362500D02*
G01*
X73880000Y-92362500D01*
X73880000Y-91062500D01*
X75980000Y-91062500D01*
X75980000Y-92362500D01*
X75980000Y-92362500D01*
G37*
G36*
X88680000Y-92362500D02*
G01*
X86580000Y-92362500D01*
X86580000Y-91062500D01*
X88680000Y-91062500D01*
X88680000Y-92362500D01*
X88680000Y-92362500D01*
G37*
G36*
X101380000Y-92362500D02*
G01*
X99280000Y-92362500D01*
X99280000Y-91062500D01*
X101380000Y-91062500D01*
X101380000Y-92362500D01*
X101380000Y-92362500D01*
G37*
G36*
X114080000Y-92362500D02*
G01*
X111980000Y-92362500D01*
X111980000Y-91062500D01*
X114080000Y-91062500D01*
X114080000Y-92362500D01*
X114080000Y-92362500D01*
G37*
G36*
X25180000Y-92362500D02*
G01*
X23080000Y-92362500D01*
X23080000Y-91062500D01*
X25180000Y-91062500D01*
X25180000Y-92362500D01*
X25180000Y-92362500D01*
G37*
G36*
X251930000Y-91220000D02*
G01*
X250630000Y-91220000D01*
X250630000Y-89120000D01*
X251930000Y-89120000D01*
X251930000Y-91220000D01*
X251930000Y-91220000D01*
G37*
G36*
X254830000Y-91220000D02*
G01*
X253530000Y-91220000D01*
X253530000Y-89120000D01*
X254830000Y-89120000D01*
X254830000Y-91220000D01*
X254830000Y-91220000D01*
G37*
G36*
X31787000Y-90712500D02*
G01*
X29287000Y-90712500D01*
X29287000Y-88912500D01*
X31787000Y-88912500D01*
X31787000Y-90712500D01*
X31787000Y-90712500D01*
G37*
G36*
X261410000Y-90712500D02*
G01*
X258910000Y-90712500D01*
X258910000Y-88912500D01*
X261410000Y-88912500D01*
X261410000Y-90712500D01*
X261410000Y-90712500D01*
G37*
G36*
X70058000Y-90712500D02*
G01*
X67558000Y-90712500D01*
X67558000Y-88912500D01*
X70058000Y-88912500D01*
X70058000Y-90712500D01*
X70058000Y-90712500D01*
G37*
G36*
X19030000Y-90712500D02*
G01*
X16530000Y-90712500D01*
X16530000Y-88912500D01*
X19030000Y-88912500D01*
X19030000Y-90712500D01*
X19030000Y-90712500D01*
G37*
G36*
X248656000Y-90712500D02*
G01*
X246156000Y-90712500D01*
X246156000Y-88912500D01*
X248656000Y-88912500D01*
X248656000Y-90712500D01*
X248656000Y-90712500D01*
G37*
G36*
X235899000Y-90712500D02*
G01*
X233399000Y-90712500D01*
X233399000Y-88912500D01*
X235899000Y-88912500D01*
X235899000Y-90712500D01*
X235899000Y-90712500D01*
G37*
G36*
X223142000Y-90712500D02*
G01*
X220642000Y-90712500D01*
X220642000Y-88912500D01*
X223142000Y-88912500D01*
X223142000Y-90712500D01*
X223142000Y-90712500D01*
G37*
G36*
X210385000Y-90712500D02*
G01*
X207885000Y-90712500D01*
X207885000Y-88912500D01*
X210385000Y-88912500D01*
X210385000Y-90712500D01*
X210385000Y-90712500D01*
G37*
G36*
X197628000Y-90712500D02*
G01*
X195128000Y-90712500D01*
X195128000Y-88912500D01*
X197628000Y-88912500D01*
X197628000Y-90712500D01*
X197628000Y-90712500D01*
G37*
G36*
X172114000Y-90712500D02*
G01*
X169614000Y-90712500D01*
X169614000Y-88912500D01*
X172114000Y-88912500D01*
X172114000Y-90712500D01*
X172114000Y-90712500D01*
G37*
G36*
X146600000Y-90712500D02*
G01*
X144100000Y-90712500D01*
X144100000Y-88912500D01*
X146600000Y-88912500D01*
X146600000Y-90712500D01*
X146600000Y-90712500D01*
G37*
G36*
X44544000Y-90712500D02*
G01*
X42044000Y-90712500D01*
X42044000Y-88912500D01*
X44544000Y-88912500D01*
X44544000Y-90712500D01*
X44544000Y-90712500D01*
G37*
G36*
X57301000Y-90712500D02*
G01*
X54801000Y-90712500D01*
X54801000Y-88912500D01*
X57301000Y-88912500D01*
X57301000Y-90712500D01*
X57301000Y-90712500D01*
G37*
G36*
X133843000Y-90712500D02*
G01*
X131343000Y-90712500D01*
X131343000Y-88912500D01*
X133843000Y-88912500D01*
X133843000Y-90712500D01*
X133843000Y-90712500D01*
G37*
G36*
X82815000Y-90712500D02*
G01*
X80315000Y-90712500D01*
X80315000Y-88912500D01*
X82815000Y-88912500D01*
X82815000Y-90712500D01*
X82815000Y-90712500D01*
G37*
G36*
X95572000Y-90712500D02*
G01*
X93072000Y-90712500D01*
X93072000Y-88912500D01*
X95572000Y-88912500D01*
X95572000Y-90712500D01*
X95572000Y-90712500D01*
G37*
G36*
X108329000Y-90712500D02*
G01*
X105829000Y-90712500D01*
X105829000Y-88912500D01*
X108329000Y-88912500D01*
X108329000Y-90712500D01*
X108329000Y-90712500D01*
G37*
G36*
X121086000Y-90712500D02*
G01*
X118586000Y-90712500D01*
X118586000Y-88912500D01*
X121086000Y-88912500D01*
X121086000Y-90712500D01*
X121086000Y-90712500D01*
G37*
G36*
X184871000Y-90712500D02*
G01*
X182371000Y-90712500D01*
X182371000Y-88912500D01*
X184871000Y-88912500D01*
X184871000Y-90712500D01*
X184871000Y-90712500D01*
G37*
G36*
X159357000Y-90712500D02*
G01*
X156857000Y-90712500D01*
X156857000Y-88912500D01*
X159357000Y-88912500D01*
X159357000Y-90712500D01*
X159357000Y-90712500D01*
G37*
G36*
X37880000Y-89462500D02*
G01*
X35780000Y-89462500D01*
X35780000Y-88162500D01*
X37880000Y-88162500D01*
X37880000Y-89462500D01*
X37880000Y-89462500D01*
G37*
G36*
X152180000Y-89462500D02*
G01*
X150080000Y-89462500D01*
X150080000Y-88162500D01*
X152180000Y-88162500D01*
X152180000Y-89462500D01*
X152180000Y-89462500D01*
G37*
G36*
X50580000Y-89462500D02*
G01*
X48480000Y-89462500D01*
X48480000Y-88162500D01*
X50580000Y-88162500D01*
X50580000Y-89462500D01*
X50580000Y-89462500D01*
G37*
G36*
X139480000Y-89462500D02*
G01*
X137380000Y-89462500D01*
X137380000Y-88162500D01*
X139480000Y-88162500D01*
X139480000Y-89462500D01*
X139480000Y-89462500D01*
G37*
G36*
X63280000Y-89462500D02*
G01*
X61180000Y-89462500D01*
X61180000Y-88162500D01*
X63280000Y-88162500D01*
X63280000Y-89462500D01*
X63280000Y-89462500D01*
G37*
G36*
X75980000Y-89462500D02*
G01*
X73880000Y-89462500D01*
X73880000Y-88162500D01*
X75980000Y-88162500D01*
X75980000Y-89462500D01*
X75980000Y-89462500D01*
G37*
G36*
X126780000Y-89462500D02*
G01*
X124680000Y-89462500D01*
X124680000Y-88162500D01*
X126780000Y-88162500D01*
X126780000Y-89462500D01*
X126780000Y-89462500D01*
G37*
G36*
X25180000Y-89462500D02*
G01*
X23080000Y-89462500D01*
X23080000Y-88162500D01*
X25180000Y-88162500D01*
X25180000Y-89462500D01*
X25180000Y-89462500D01*
G37*
G36*
X164880000Y-89462500D02*
G01*
X162780000Y-89462500D01*
X162780000Y-88162500D01*
X164880000Y-88162500D01*
X164880000Y-89462500D01*
X164880000Y-89462500D01*
G37*
G36*
X114080000Y-89462500D02*
G01*
X111980000Y-89462500D01*
X111980000Y-88162500D01*
X114080000Y-88162500D01*
X114080000Y-89462500D01*
X114080000Y-89462500D01*
G37*
G36*
X177580000Y-89462500D02*
G01*
X175480000Y-89462500D01*
X175480000Y-88162500D01*
X177580000Y-88162500D01*
X177580000Y-89462500D01*
X177580000Y-89462500D01*
G37*
G36*
X242350000Y-89462500D02*
G01*
X240250000Y-89462500D01*
X240250000Y-88162500D01*
X242350000Y-88162500D01*
X242350000Y-89462500D01*
X242350000Y-89462500D01*
G37*
G36*
X229650000Y-89462500D02*
G01*
X227550000Y-89462500D01*
X227550000Y-88162500D01*
X229650000Y-88162500D01*
X229650000Y-89462500D01*
X229650000Y-89462500D01*
G37*
G36*
X190280000Y-89462500D02*
G01*
X188180000Y-89462500D01*
X188180000Y-88162500D01*
X190280000Y-88162500D01*
X190280000Y-89462500D01*
X190280000Y-89462500D01*
G37*
G36*
X216950000Y-89462500D02*
G01*
X214850000Y-89462500D01*
X214850000Y-88162500D01*
X216950000Y-88162500D01*
X216950000Y-89462500D01*
X216950000Y-89462500D01*
G37*
G36*
X204250000Y-89462500D02*
G01*
X202150000Y-89462500D01*
X202150000Y-88162500D01*
X204250000Y-88162500D01*
X204250000Y-89462500D01*
X204250000Y-89462500D01*
G37*
G36*
X101380000Y-89462500D02*
G01*
X99280000Y-89462500D01*
X99280000Y-88162500D01*
X101380000Y-88162500D01*
X101380000Y-89462500D01*
X101380000Y-89462500D01*
G37*
G36*
X88680000Y-89462500D02*
G01*
X86580000Y-89462500D01*
X86580000Y-88162500D01*
X88680000Y-88162500D01*
X88680000Y-89462500D01*
X88680000Y-89462500D01*
G37*
G36*
X216480000Y-86560000D02*
G01*
X215180000Y-86560000D01*
X215180000Y-83620000D01*
X216480000Y-83620000D01*
X216480000Y-86560000D01*
X216480000Y-86560000D01*
G37*
G36*
X213580000Y-86560000D02*
G01*
X212280000Y-86560000D01*
X212280000Y-83620000D01*
X213580000Y-83620000D01*
X213580000Y-86560000D01*
X213580000Y-86560000D01*
G37*
G36*
X175730000Y-86560000D02*
G01*
X174430000Y-86560000D01*
X174430000Y-83620000D01*
X175730000Y-83620000D01*
X175730000Y-86560000D01*
X175730000Y-86560000D01*
G37*
G36*
X178630000Y-86560000D02*
G01*
X177330000Y-86560000D01*
X177330000Y-83620000D01*
X178630000Y-83620000D01*
X178630000Y-86560000D01*
X178630000Y-86560000D01*
G37*
G36*
X137630000Y-86560000D02*
G01*
X136330000Y-86560000D01*
X136330000Y-83620000D01*
X137630000Y-83620000D01*
X137630000Y-86560000D01*
X137630000Y-86560000D01*
G37*
G36*
X140530000Y-86560000D02*
G01*
X139230000Y-86560000D01*
X139230000Y-83620000D01*
X140530000Y-83620000D01*
X140530000Y-86560000D01*
X140530000Y-86560000D01*
G37*
G36*
X102430000Y-86560000D02*
G01*
X101130000Y-86560000D01*
X101130000Y-83620000D01*
X102430000Y-83620000D01*
X102430000Y-86560000D01*
X102430000Y-86560000D01*
G37*
G36*
X61430000Y-86560000D02*
G01*
X60130000Y-86560000D01*
X60130000Y-83620000D01*
X61430000Y-83620000D01*
X61430000Y-86560000D01*
X61430000Y-86560000D01*
G37*
G36*
X64330000Y-86560000D02*
G01*
X63030000Y-86560000D01*
X63030000Y-83620000D01*
X64330000Y-83620000D01*
X64330000Y-86560000D01*
X64330000Y-86560000D01*
G37*
G36*
X99530000Y-86560000D02*
G01*
X98230000Y-86560000D01*
X98230000Y-83620000D01*
X99530000Y-83620000D01*
X99530000Y-86560000D01*
X99530000Y-86560000D01*
G37*
G36*
X16980000Y-86560000D02*
G01*
X15680000Y-86560000D01*
X15680000Y-83620000D01*
X16980000Y-83620000D01*
X16980000Y-86560000D01*
X16980000Y-86560000D01*
G37*
G36*
X19880000Y-86560000D02*
G01*
X18580000Y-86560000D01*
X18580000Y-83620000D01*
X19880000Y-83620000D01*
X19880000Y-86560000D01*
X19880000Y-86560000D01*
G37*
G36*
X156357000Y-86340000D02*
G01*
X154557000Y-86340000D01*
X154557000Y-83840000D01*
X156357000Y-83840000D01*
X156357000Y-86340000D01*
X156357000Y-86340000D01*
G37*
G36*
X159457000Y-86340000D02*
G01*
X156757000Y-86340000D01*
X156757000Y-83840000D01*
X159457000Y-83840000D01*
X159457000Y-86340000D01*
X159457000Y-86340000D01*
G37*
G36*
X133943000Y-86340000D02*
G01*
X131243000Y-86340000D01*
X131243000Y-83840000D01*
X133943000Y-83840000D01*
X133943000Y-86340000D01*
X133943000Y-86340000D01*
G37*
G36*
X130843000Y-86340000D02*
G01*
X129043000Y-86340000D01*
X129043000Y-83840000D01*
X130843000Y-83840000D01*
X130843000Y-86340000D01*
X130843000Y-86340000D01*
G37*
G36*
X41544000Y-86340000D02*
G01*
X39744000Y-86340000D01*
X39744000Y-83840000D01*
X41544000Y-83840000D01*
X41544000Y-86340000D01*
X41544000Y-86340000D01*
G37*
G36*
X169114000Y-86340000D02*
G01*
X167314000Y-86340000D01*
X167314000Y-83840000D01*
X169114000Y-83840000D01*
X169114000Y-86340000D01*
X169114000Y-86340000D01*
G37*
G36*
X184971000Y-86340000D02*
G01*
X182271000Y-86340000D01*
X182271000Y-83840000D01*
X184971000Y-83840000D01*
X184971000Y-86340000D01*
X184971000Y-86340000D01*
G37*
G36*
X197728000Y-86340000D02*
G01*
X195028000Y-86340000D01*
X195028000Y-83840000D01*
X197728000Y-83840000D01*
X197728000Y-86340000D01*
X197728000Y-86340000D01*
G37*
G36*
X194628000Y-86340000D02*
G01*
X192828000Y-86340000D01*
X192828000Y-83840000D01*
X194628000Y-83840000D01*
X194628000Y-86340000D01*
X194628000Y-86340000D01*
G37*
G36*
X172214000Y-86340000D02*
G01*
X169514000Y-86340000D01*
X169514000Y-83840000D01*
X172214000Y-83840000D01*
X172214000Y-86340000D01*
X172214000Y-86340000D01*
G37*
G36*
X207385000Y-86340000D02*
G01*
X205585000Y-86340000D01*
X205585000Y-83840000D01*
X207385000Y-83840000D01*
X207385000Y-86340000D01*
X207385000Y-86340000D01*
G37*
G36*
X210485000Y-86340000D02*
G01*
X207785000Y-86340000D01*
X207785000Y-83840000D01*
X210485000Y-83840000D01*
X210485000Y-86340000D01*
X210485000Y-86340000D01*
G37*
G36*
X223242000Y-86340000D02*
G01*
X220542000Y-86340000D01*
X220542000Y-83840000D01*
X223242000Y-83840000D01*
X223242000Y-86340000D01*
X223242000Y-86340000D01*
G37*
G36*
X181871000Y-86340000D02*
G01*
X180071000Y-86340000D01*
X180071000Y-83840000D01*
X181871000Y-83840000D01*
X181871000Y-86340000D01*
X181871000Y-86340000D01*
G37*
G36*
X31887000Y-86340000D02*
G01*
X29187000Y-86340000D01*
X29187000Y-83840000D01*
X31887000Y-83840000D01*
X31887000Y-86340000D01*
X31887000Y-86340000D01*
G37*
G36*
X28787000Y-86340000D02*
G01*
X26987000Y-86340000D01*
X26987000Y-83840000D01*
X28787000Y-83840000D01*
X28787000Y-86340000D01*
X28787000Y-86340000D01*
G37*
G36*
X220142000Y-86340000D02*
G01*
X218342000Y-86340000D01*
X218342000Y-83840000D01*
X220142000Y-83840000D01*
X220142000Y-86340000D01*
X220142000Y-86340000D01*
G37*
G36*
X232899000Y-86340000D02*
G01*
X231099000Y-86340000D01*
X231099000Y-83840000D01*
X232899000Y-83840000D01*
X232899000Y-86340000D01*
X232899000Y-86340000D01*
G37*
G36*
X92572000Y-86340000D02*
G01*
X90772000Y-86340000D01*
X90772000Y-83840000D01*
X92572000Y-83840000D01*
X92572000Y-86340000D01*
X92572000Y-86340000D01*
G37*
G36*
X95672000Y-86340000D02*
G01*
X92972000Y-86340000D01*
X92972000Y-83840000D01*
X95672000Y-83840000D01*
X95672000Y-86340000D01*
X95672000Y-86340000D01*
G37*
G36*
X121186000Y-86340000D02*
G01*
X118486000Y-86340000D01*
X118486000Y-83840000D01*
X121186000Y-83840000D01*
X121186000Y-86340000D01*
X121186000Y-86340000D01*
G37*
G36*
X82915000Y-86340000D02*
G01*
X80215000Y-86340000D01*
X80215000Y-83840000D01*
X82915000Y-83840000D01*
X82915000Y-86340000D01*
X82915000Y-86340000D01*
G37*
G36*
X79815000Y-86340000D02*
G01*
X78015000Y-86340000D01*
X78015000Y-83840000D01*
X79815000Y-83840000D01*
X79815000Y-86340000D01*
X79815000Y-86340000D01*
G37*
G36*
X105329000Y-86340000D02*
G01*
X103529000Y-86340000D01*
X103529000Y-83840000D01*
X105329000Y-83840000D01*
X105329000Y-86340000D01*
X105329000Y-86340000D01*
G37*
G36*
X108429000Y-86340000D02*
G01*
X105729000Y-86340000D01*
X105729000Y-83840000D01*
X108429000Y-83840000D01*
X108429000Y-86340000D01*
X108429000Y-86340000D01*
G37*
G36*
X70158000Y-86340000D02*
G01*
X67458000Y-86340000D01*
X67458000Y-83840000D01*
X70158000Y-83840000D01*
X70158000Y-86340000D01*
X70158000Y-86340000D01*
G37*
G36*
X67058000Y-86340000D02*
G01*
X65258000Y-86340000D01*
X65258000Y-83840000D01*
X67058000Y-83840000D01*
X67058000Y-86340000D01*
X67058000Y-86340000D01*
G37*
G36*
X143600000Y-86340000D02*
G01*
X141800000Y-86340000D01*
X141800000Y-83840000D01*
X143600000Y-83840000D01*
X143600000Y-86340000D01*
X143600000Y-86340000D01*
G37*
G36*
X118086000Y-86340000D02*
G01*
X116286000Y-86340000D01*
X116286000Y-83840000D01*
X118086000Y-83840000D01*
X118086000Y-86340000D01*
X118086000Y-86340000D01*
G37*
G36*
X57401000Y-86340000D02*
G01*
X54701000Y-86340000D01*
X54701000Y-83840000D01*
X57401000Y-83840000D01*
X57401000Y-86340000D01*
X57401000Y-86340000D01*
G37*
G36*
X54301000Y-86340000D02*
G01*
X52501000Y-86340000D01*
X52501000Y-83840000D01*
X54301000Y-83840000D01*
X54301000Y-86340000D01*
X54301000Y-86340000D01*
G37*
G36*
X248756000Y-86340000D02*
G01*
X246056000Y-86340000D01*
X246056000Y-83840000D01*
X248756000Y-83840000D01*
X248756000Y-86340000D01*
X248756000Y-86340000D01*
G37*
G36*
X245656000Y-86340000D02*
G01*
X243856000Y-86340000D01*
X243856000Y-83840000D01*
X245656000Y-83840000D01*
X245656000Y-86340000D01*
X245656000Y-86340000D01*
G37*
G36*
X44644000Y-86340000D02*
G01*
X41944000Y-86340000D01*
X41944000Y-83840000D01*
X44644000Y-83840000D01*
X44644000Y-86340000D01*
X44644000Y-86340000D01*
G37*
G36*
X235999000Y-86340000D02*
G01*
X233299000Y-86340000D01*
X233299000Y-83840000D01*
X235999000Y-83840000D01*
X235999000Y-86340000D01*
X235999000Y-86340000D01*
G37*
G36*
X146700000Y-86340000D02*
G01*
X144000000Y-86340000D01*
X144000000Y-83840000D01*
X146700000Y-83840000D01*
X146700000Y-86340000D01*
X146700000Y-86340000D01*
G37*
M02*
