M48
; DRILL file {KiCad 5.1.3-ffb9f22~84~ubuntu18.04.1} date Tue 30 Jul 2019 09:27:33 PM PDT
; FORMAT={-:-/ absolute / inch / decimal}
; #@! TF.CreationDate,2019-07-30T21:27:33-07:00
; #@! TF.GenerationSoftware,Kicad,Pcbnew,5.1.3-ffb9f22~84~ubuntu18.04.1
; #@! TF.FileFunction,Plated,1,2,PTH
FMAT,2
INCH
T1C0.0157
T2C0.0394
%
G90
G05
T1
X0.8772Y-4.1645
X2.2464Y-3.4269
X9.07Y-3.5011
T2
X9.0236Y-3.35
X9.5Y-3.75
X8.5Y-4.4631
X8.5Y-4.5531
X8.5Y-4.6431
X9.0Y-4.5697
X9.0Y-3.9
X9.0236Y-4.9791
X3.95Y-4.4631
X3.95Y-4.5531
X3.95Y-4.6431
X5.45Y-4.4631
X5.45Y-4.5531
X5.45Y-4.6431
X9.0Y-4.4197
X9.0Y-4.7197
X9.95Y-4.4631
X9.95Y-4.5531
X9.95Y-4.6431
X9.0Y-4.05
X9.0Y-3.75
X6.9571Y-4.4631
X6.9571Y-4.5531
X6.9571Y-4.6431
X2.45Y-4.4631
X2.45Y-4.5531
X2.45Y-4.6431
T0
M30
